<svg xmlns="http://www.w3.org/2000/svg" xmlns:xlink="http://www.w3.org/1999/xlink" width="500" zoomAndPan="magnify" viewBox="0 0 375 374.999991" height="500" preserveAspectRatio="xMidYMid meet" version="1.0"><defs><filter x="0%" y="0%" width="100%" height="100%" id="1a31b4f250"><feColorMatrix values="0 0 0 0 1 0 0 0 0 1 0 0 0 0 1 0 0 0 1 0" color-interpolation-filters="sRGB"/></filter><g/><clipPath id="d3634189ab"><path d="M 145 260 L 237 260 L 237 337.550781 L 145 337.550781 Z M 145 260 " clip-rule="nonzero"/></clipPath><mask id="8839768273"><g filter="url(#1a31b4f250)"><rect x="-37.5" width="450" fill="#000000" y="-37.499999" height="449.999989" fill-opacity="0.18"/></g></mask><clipPath id="727228bdf0"><rect x="0" width="18" y="0" height="16"/></clipPath><mask id="2c1129bfbf"><g filter="url(#1a31b4f250)"><rect x="-37.5" width="450" fill="#000000" y="-37.499999" height="449.999989" fill-opacity="0.18"/></g></mask><clipPath id="fcdc870424"><rect x="0" width="18" y="0" height="16"/></clipPath><mask id="6e4096dea0"><g filter="url(#1a31b4f250)"><rect x="-37.5" width="450" fill="#000000" y="-37.499999" height="449.999989" fill-opacity="0.55"/></g></mask><clipPath id="e487ef8848"><rect x="0" width="16" y="0" height="13"/></clipPath><clipPath id="98a2d6e489"><path d="M 82 332 L 308 332 L 308 337.550781 L 82 337.550781 Z M 82 332 " clip-rule="nonzero"/></clipPath><clipPath id="993e92e51f"><path d="M 11.78125 222 L 19 222 L 19 230 L 11.78125 230 Z M 11.78125 222 " clip-rule="nonzero"/></clipPath><clipPath id="b369dd4ca5"><path d="M 356 225 L 363.53125 225 L 363.53125 233 L 356 233 Z M 356 225 " clip-rule="nonzero"/></clipPath><clipPath id="68d1c11027"><path d="M 145 33.800781 L 238 33.800781 L 238 127 L 145 127 Z M 145 33.800781 " clip-rule="nonzero"/></clipPath><mask id="1c8ce36fb7"><g filter="url(#1a31b4f250)"><rect x="-37.5" width="450" fill="#000000" y="-37.499999" height="449.999989" fill-opacity="0.55"/></g></mask><clipPath id="59463a8dc8"><path d="M 0.320312 0.238281 L 20 0.238281 L 20 17.519531 L 0.320312 17.519531 Z M 0.320312 0.238281 " clip-rule="nonzero"/></clipPath><clipPath id="54bcd61eb6"><rect x="0" width="20" y="0" height="18"/></clipPath></defs><path fill="#fbe291" d="M 318.8125 212.902344 C 318.8125 267.46875 285.476562 314.253906 238.054688 334.035156 L 136.972656 334.035156 C 89.550781 314.253906 56.214844 267.46875 56.214844 212.902344 C 56.214844 140.4375 114.996094 81.695312 187.515625 81.695312 C 260.03125 81.695312 318.8125 140.4375 318.8125 212.902344 Z M 318.8125 212.902344 " fill-opacity="1" fill-rule="nonzero"/><path fill="#ff5722" d="M 234.300781 263.121094 L 233.558594 273.742188 L 233.5 274.679688 L 230.75 314.207031 L 229.996094 325.023438 C 229.605469 330.679688 224.902344 335.0625 219.230469 335.0625 L 163.425781 335.0625 C 157.753906 335.0625 153.046875 330.679688 152.660156 325.023438 L 152.558594 323.5625 L 149.15625 274.679688 L 149.097656 273.742188 L 148.355469 263.121094 Z M 234.300781 263.121094 " fill-opacity="1" fill-rule="nonzero"/><path fill="#ffffff" d="M 157.796875 325.023438 L 157.695312 323.5625 L 154.292969 274.679688 L 154.234375 273.742188 L 153.492188 263.121094 L 148.355469 263.121094 L 149.097656 273.742188 L 149.15625 274.679688 L 152.558594 323.5625 L 152.660156 325.023438 C 153.046875 330.679688 157.753906 335.0625 163.425781 335.0625 L 168.5625 335.0625 C 162.890625 335.0625 158.1875 330.671875 157.796875 325.023438 Z M 157.796875 325.023438 " fill-opacity="0.55" fill-rule="nonzero"/><path fill="#6b184e" d="M 189.582031 231.304688 C 188.246094 231.304688 187.148438 230.21875 187.148438 228.875 L 187.148438 115.851562 C 187.148438 114.515625 188.234375 113.421875 189.582031 113.421875 C 190.917969 113.421875 192.011719 114.503906 192.011719 115.851562 L 192.011719 228.886719 C 192.011719 230.21875 190.917969 231.304688 189.582031 231.304688 Z M 189.582031 231.304688 " fill-opacity="1" fill-rule="nonzero"/><path fill="#ea8769" d="M 242.4375 236.300781 L 241.125 255.160156 C 240.816406 259.640625 237.085938 263.121094 232.585938 263.121094 L 150.046875 263.121094 C 145.546875 263.121094 141.816406 259.640625 141.507812 255.160156 L 140.195312 236.300781 C 139.898438 232.101562 143.230469 228.53125 147.441406 228.53125 L 235.1875 228.53125 C 239.402344 228.542969 242.734375 232.101562 242.4375 236.300781 Z M 242.4375 236.300781 " fill-opacity="1" fill-rule="nonzero"/><path fill="#ff5722" d="M 242.4375 236.300781 L 241.125 255.160156 C 240.816406 259.640625 237.085938 263.121094 232.585938 263.121094 L 150.046875 263.121094 C 145.546875 263.121094 141.816406 259.640625 141.507812 255.160156 L 140.195312 236.300781 C 139.898438 232.101562 143.230469 228.53125 147.441406 228.53125 L 235.1875 228.53125 C 239.402344 228.542969 242.734375 232.101562 242.4375 236.300781 Z M 242.4375 236.300781 " fill-opacity="1" fill-rule="nonzero"/><path fill="#ffffff" d="M 242.554688 233.128906 C 241.789062 232.855469 240.976562 232.707031 240.121094 232.707031 L 180.34375 232.707031 C 178.691406 238.058594 166.144531 238.058594 164.5 232.707031 L 148.585938 232.707031 C 146.425781 232.707031 144.714844 234.542969 144.863281 236.6875 L 146.4375 259.324219 C 146.519531 260.566406 146.871094 261.730469 147.429688 262.769531 C 144.566406 261.546875 142.488281 258.785156 142.261719 255.488281 L 140.945312 236.632812 C 140.660156 232.433594 143.996094 228.875 148.195312 228.875 L 235.941406 228.875 C 238.898438 228.886719 241.410156 230.628906 242.554688 233.128906 Z M 242.554688 233.128906 " fill-opacity="0.55" fill-rule="nonzero"/><path fill="#6b184e" d="M 239.09375 232.296875 L 237.78125 251.152344 C 237.574219 256.390625 235.144531 259.117188 229.242188 259.117188 L 146.691406 259.117188 C 144.75 259.117188 142.933594 258.46875 141.496094 257.359375 C 141.242188 256.800781 141.0625 256.21875 140.9375 255.601562 C 141.679688 255.820312 142.464844 255.933594 143.277344 255.933594 L 203.347656 255.933594 C 203.929688 255.945312 204.503906 255.945312 205.074219 255.933594 C 223.257812 255.75 233.992188 249.558594 235.210938 235.71875 C 235.210938 235.707031 235.210938 235.707031 235.210938 235.707031 L 235.667969 229.125 C 235.691406 228.726562 235.691406 228.335938 235.65625 227.949219 C 236.742188 228.132812 237.734375 228.542969 238.601562 229.148438 C 238.613281 229.160156 238.613281 229.160156 238.613281 229.160156 C 238.980469 230.117188 239.164062 231.191406 239.09375 232.296875 Z M 239.09375 232.296875 " fill-opacity="0.3" fill-rule="nonzero"/><path fill="#6b184e" d="M 232.597656 265.550781 L 150.058594 265.550781 C 144.304688 265.550781 139.496094 261.054688 139.097656 255.328125 L 137.785156 236.472656 C 137.601562 233.800781 138.539062 231.144531 140.363281 229.191406 C 142.191406 227.230469 144.773438 226.113281 147.453125 226.113281 L 235.199219 226.113281 C 237.882812 226.113281 240.464844 227.230469 242.289062 229.191406 C 244.117188 231.15625 245.054688 233.800781 244.871094 236.472656 L 243.558594 255.328125 C 243.15625 261.054688 238.339844 265.550781 232.597656 265.550781 Z M 147.453125 230.960938 C 146.097656 230.960938 144.839844 231.507812 143.914062 232.5 C 142.992188 233.492188 142.535156 234.785156 142.625 236.140625 L 143.9375 255 C 144.15625 258.191406 146.847656 260.703125 150.058594 260.703125 L 232.597656 260.703125 C 235.804688 260.703125 238.5 258.191406 238.71875 255 L 240.03125 236.140625 C 240.121094 234.785156 239.664062 233.492188 238.738281 232.5 C 237.816406 231.507812 236.558594 230.960938 235.199219 230.960938 Z M 242.4375 236.300781 Z M 242.4375 236.300781 " fill-opacity="1" fill-rule="nonzero"/><g clip-path="url(#d3634189ab)"><path fill="#6b184e" d="M 219.230469 337.503906 L 163.425781 337.503906 C 156.507812 337.503906 150.707031 332.097656 150.230469 325.195312 L 145.925781 263.292969 C 145.878906 262.621094 146.117188 261.957031 146.574219 261.457031 C 147.03125 260.964844 147.683594 260.679688 148.355469 260.679688 L 234.300781 260.679688 C 234.972656 260.679688 235.625 260.964844 236.078125 261.457031 C 236.535156 261.945312 236.777344 262.609375 236.730469 263.292969 L 232.425781 325.195312 C 231.945312 332.097656 226.148438 337.503906 219.230469 337.503906 Z M 150.960938 265.5625 L 155.082031 324.863281 C 155.390625 329.222656 159.042969 332.632812 163.414062 332.632812 L 219.230469 332.632812 C 223.601562 332.632812 227.253906 329.222656 227.5625 324.863281 L 231.683594 265.5625 Z M 150.960938 265.5625 " fill-opacity="1" fill-rule="nonzero"/></g><path fill="#6b184e" d="M 229.996094 263.964844 L 229.605469 269.476562 L 229.550781 270.410156 L 226.796875 309.941406 L 226.042969 320.757812 C 225.460938 329.324219 221.808594 330.796875 215.277344 330.796875 L 159.476562 330.796875 C 157.160156 330.796875 155.011719 330.066406 153.253906 328.820312 C 152.933594 327.921875 152.730469 326.972656 152.660156 325.96875 L 152.558594 324.507812 L 166.3125 322.707031 C 190.460938 319.535156 210.929688 300.097656 218.519531 277.65625 C 219.207031 275.648438 217.8125 273.539062 215.691406 273.34375 L 149.179688 267.433594 L 149.179688 265.175781 L 220.691406 264.011719 C 220.703125 263.910156 220.703125 263.828125 220.714844 263.726562 Z M 229.996094 263.964844 " fill-opacity="0.3" fill-rule="nonzero"/><path fill="#ffffff" d="M 178.78125 293.492188 C 178.78125 294.621094 178.730469 295.742188 178.628906 296.851562 C 178.53125 297.960938 178.382812 299.039062 178.183594 300.082031 C 177.988281 301.128906 177.746094 302.121094 177.460938 303.0625 C 177.171875 304 176.847656 304.871094 176.484375 305.671875 C 176.121094 306.472656 175.722656 307.183594 175.296875 307.8125 C 174.867188 308.441406 174.414062 308.972656 173.9375 309.40625 C 173.464844 309.839844 172.972656 310.164062 172.46875 310.386719 C 171.964844 310.605469 171.453125 310.71875 170.9375 310.71875 C 170.421875 310.71875 169.914062 310.605469 169.40625 310.386719 C 168.902344 310.164062 168.414062 309.839844 167.9375 309.40625 C 167.460938 308.972656 167.007812 308.441406 166.582031 307.8125 C 166.152344 307.183594 165.757812 306.472656 165.390625 305.671875 C 165.027344 304.871094 164.703125 304 164.417969 303.0625 C 164.128906 302.121094 163.890625 301.128906 163.691406 300.082031 C 163.496094 299.039062 163.347656 297.960938 163.246094 296.851562 C 163.144531 295.742188 163.09375 294.621094 163.09375 293.492188 C 163.09375 292.359375 163.144531 291.238281 163.246094 290.128906 C 163.347656 289.019531 163.496094 287.941406 163.691406 286.898438 C 163.890625 285.851562 164.128906 284.859375 164.417969 283.917969 C 164.703125 282.980469 165.027344 282.109375 165.390625 281.308594 C 165.757812 280.507812 166.152344 279.796875 166.582031 279.167969 C 167.007812 278.539062 167.460938 278.007812 167.9375 277.574219 C 168.414062 277.140625 168.902344 276.816406 169.40625 276.59375 C 169.914062 276.375 170.421875 276.265625 170.9375 276.265625 C 171.453125 276.265625 171.964844 276.375 172.46875 276.59375 C 172.972656 276.816406 173.464844 277.140625 173.9375 277.574219 C 174.414062 278.007812 174.867188 278.539062 175.296875 279.167969 C 175.722656 279.796875 176.121094 280.507812 176.484375 281.308594 C 176.847656 282.109375 177.171875 282.980469 177.460938 283.917969 C 177.746094 284.859375 177.988281 285.851562 178.183594 286.898438 C 178.382812 287.941406 178.53125 289.019531 178.628906 290.128906 C 178.730469 291.238281 178.78125 292.359375 178.78125 293.492188 Z M 178.78125 293.492188 " fill-opacity="0.21" fill-rule="nonzero"/><path fill="#1ebc61" d="M 189.582031 227.5625 C 190.253906 203.46875 226.078125 173.625 248.398438 177.296875 C 250.476562 197.84375 218.714844 231.875 189.582031 227.5625 Z M 189.582031 227.5625 " fill-opacity="1" fill-rule="nonzero"/><path fill="#ffffff" d="M 248.488281 179.019531 C 248.5 179.625 248.476562 180.230469 248.433594 180.855469 C 227.164062 179.839844 196.226562 205.464844 192.628906 227.882812 C 192.023438 227.847656 191.417969 227.800781 190.8125 227.734375 C 190.414062 227.6875 190.003906 227.628906 189.59375 227.574219 C 190.265625 203.480469 226.089844 173.644531 248.410156 177.308594 C 248.457031 177.855469 248.488281 178.4375 248.488281 179.019531 Z M 248.488281 179.019531 " fill-opacity="0.55" fill-rule="nonzero"/><path fill="#6b184e" d="M 248.488281 179.019531 C 248.730469 199.371094 218.785156 230.847656 190.800781 227.734375 C 190.402344 227.6875 189.992188 227.628906 189.582031 227.574219 C 189.59375 227.117188 189.613281 226.648438 189.660156 226.191406 L 199.398438 217.488281 C 220.816406 214.488281 241.308594 194.214844 246.539062 177.078125 C 247.164062 177.125 247.78125 177.195312 248.398438 177.308594 C 248.457031 177.855469 248.488281 178.4375 248.488281 179.019531 Z M 248.488281 179.019531 " fill-opacity="0.3" fill-rule="nonzero"/><path fill="#6b184e" d="M 194.582031 229.921875 C 192.789062 229.921875 191.019531 229.796875 189.296875 229.546875 C 188.289062 229.398438 187.558594 228.53125 187.59375 227.515625 C 187.925781 215.59375 196.683594 201.152344 210.414062 189.8125 C 223.566406 178.960938 237.894531 173.554688 248.730469 175.335938 C 249.621094 175.484375 250.304688 176.203125 250.394531 177.101562 C 251.433594 187.425781 244.503906 201.34375 232.734375 212.582031 C 221.089844 223.683594 207.195312 229.921875 194.582031 229.921875 Z M 191.703125 225.804688 C 204 226.890625 218.15625 220.957031 229.972656 209.683594 C 240.269531 199.863281 246.59375 188.054688 246.503906 179.066406 C 237.0625 178.265625 224.402344 183.445312 212.949219 192.878906 C 200.78125 202.917969 192.800781 215.355469 191.703125 225.804688 Z M 191.703125 225.804688 " fill-opacity="1" fill-rule="nonzero"/><path fill="#6b184e" d="M 200.1875 215.949219 L 215.015625 214.523438 L 200.574219 218.195312 Z M 200.1875 215.949219 " fill-opacity="1" fill-rule="nonzero"/><path fill="#6b184e" d="M 209.515625 208.019531 L 209.457031 199.144531 L 211.773438 207.710938 Z M 209.515625 208.019531 " fill-opacity="1" fill-rule="nonzero"/><g mask="url(#8839768273)"><g transform="matrix(1, 0, 0, 1, 218, 189)"><g clip-path="url(#727228bdf0)"><path fill="#ffffff" d="M 15.730469 2.789062 C 15.832031 2.914062 15.894531 3.074219 15.910156 3.269531 C 15.925781 3.460938 15.898438 3.6875 15.828125 3.945312 C 15.753906 4.199219 15.640625 4.480469 15.480469 4.789062 C 15.324219 5.097656 15.125 5.425781 14.890625 5.773438 C 14.652344 6.121094 14.378906 6.480469 14.070312 6.855469 C 13.761719 7.230469 13.425781 7.609375 13.058594 7.996094 C 12.691406 8.378906 12.300781 8.765625 11.890625 9.148438 C 11.480469 9.53125 11.054688 9.90625 10.613281 10.273438 C 10.171875 10.636719 9.726562 10.988281 9.273438 11.324219 C 8.820312 11.65625 8.371094 11.96875 7.925781 12.257812 C 7.476562 12.550781 7.042969 12.8125 6.617188 13.046875 C 6.195312 13.28125 5.789062 13.480469 5.402344 13.652344 C 5.019531 13.820312 4.660156 13.957031 4.328125 14.054688 C 3.996094 14.152344 3.699219 14.214844 3.433594 14.238281 C 3.167969 14.261719 2.941406 14.25 2.753906 14.199219 C 2.566406 14.144531 2.417969 14.058594 2.316406 13.933594 C 2.210938 13.804688 2.148438 13.644531 2.132812 13.453125 C 2.117188 13.257812 2.144531 13.03125 2.214844 12.777344 C 2.289062 12.519531 2.402344 12.238281 2.5625 11.929688 C 2.71875 11.621094 2.917969 11.296875 3.152344 10.949219 C 3.390625 10.601562 3.664062 10.238281 3.972656 9.867188 C 4.28125 9.492188 4.617188 9.113281 4.984375 8.726562 C 5.351562 8.339844 5.742188 7.953125 6.152344 7.570312 C 6.5625 7.1875 6.992188 6.8125 7.429688 6.449219 C 7.871094 6.082031 8.316406 5.730469 8.769531 5.398438 C 9.222656 5.0625 9.671875 4.75 10.117188 4.460938 C 10.566406 4.171875 11 3.910156 11.425781 3.675781 C 11.847656 3.441406 12.253906 3.238281 12.640625 3.066406 C 13.023438 2.898438 13.382812 2.761719 13.714844 2.664062 C 14.046875 2.566406 14.34375 2.503906 14.609375 2.480469 C 14.875 2.457031 15.101562 2.46875 15.289062 2.523438 C 15.476562 2.574219 15.625 2.664062 15.730469 2.789062 Z M 15.730469 2.789062 " fill-opacity="1" fill-rule="nonzero"/></g></g></g><path fill="#6b184e" d="M 189.582031 228.703125 C 189.285156 228.703125 189 228.589844 188.769531 228.359375 C 188.324219 227.914062 188.324219 227.183594 188.769531 226.75 C 209.183594 206.492188 228.066406 190.382812 246.492188 177.503906 C 247.003906 177.136719 247.722656 177.261719 248.078125 177.789062 C 248.445312 178.300781 248.316406 179.019531 247.792969 179.375 C 229.46875 192.171875 210.691406 208.203125 190.367188 228.371094 C 190.164062 228.601562 189.867188 228.703125 189.582031 228.703125 Z M 189.582031 228.703125 " fill-opacity="1" fill-rule="nonzero"/><path fill="#6b184e" d="M 214.21875 203.148438 L 229.046875 201.734375 L 214.617188 205.394531 Z M 214.21875 203.148438 " fill-opacity="1" fill-rule="nonzero"/><path fill="#6b184e" d="M 222.460938 196.90625 L 222.402344 188.042969 L 224.71875 196.601562 Z M 222.460938 196.90625 " fill-opacity="1" fill-rule="nonzero"/><path fill="#6b184e" d="M 230.257812 189.539062 L 238.613281 190.632812 L 230.269531 191.820312 Z M 230.257812 189.539062 " fill-opacity="1" fill-rule="nonzero"/><path fill="#1ebc61" d="M 190.015625 227.5625 C 189.339844 203.46875 153.515625 173.625 131.199219 177.296875 C 129.121094 197.84375 160.890625 231.875 190.015625 227.5625 Z M 190.015625 227.5625 " fill-opacity="1" fill-rule="nonzero"/><path fill="#ffffff" d="M 161.542969 220.601562 C 145.296875 210.472656 132.980469 192.800781 133.136719 179.714844 C 133.136719 179.132812 133.171875 178.5625 133.230469 177.992188 C 144.019531 176.222656 157.945312 182.269531 169.546875 191.71875 C 159.773438 185.5 149.246094 181.984375 140.695312 183.390625 C 140.640625 183.949219 140.605469 184.519531 140.605469 185.113281 C 140.46875 196.097656 149.132812 210.324219 161.542969 220.601562 Z M 161.542969 220.601562 " fill-opacity="0.55" fill-rule="nonzero"/><path fill="#6b184e" d="M 191.328125 229.066406 C 190.929688 229.125 190.515625 229.183594 190.105469 229.226562 C 173.402344 231.085938 155.992188 220.625 144.726562 207.550781 C 153.925781 213.449219 164.441406 216.953125 174.695312 215.8125 C 175.09375 215.765625 175.503906 215.707031 175.914062 215.652344 C 175.652344 206.558594 170.402344 196.65625 162.753906 188.042969 C 177.914062 198.164062 190.917969 214.636719 191.328125 229.066406 Z M 191.328125 229.066406 " fill-opacity="0.3" fill-rule="nonzero"/><path fill="#6b184e" d="M 185.027344 229.921875 C 172.410156 229.921875 158.503906 223.683594 146.871094 212.570312 C 135.101562 201.34375 128.171875 187.414062 129.210938 177.089844 C 129.300781 176.191406 129.988281 175.472656 130.878906 175.324219 C 141.710938 173.542969 156.039062 178.949219 169.191406 189.800781 C 182.9375 201.128906 191.679688 215.582031 192.011719 227.503906 C 192.035156 228.519531 191.304688 229.386719 190.3125 229.535156 C 188.578125 229.796875 186.816406 229.921875 185.027344 229.921875 Z M 133.09375 179.078125 C 132.988281 188.054688 139.324219 199.863281 149.625 209.695312 C 161.441406 220.96875 175.605469 226.898438 187.890625 225.816406 C 186.785156 215.367188 178.804688 202.929688 166.632812 192.890625 C 155.207031 183.457031 142.546875 178.277344 133.09375 179.078125 Z M 133.09375 179.078125 " fill-opacity="1" fill-rule="nonzero"/><path fill="#6b184e" d="M 179.019531 218.195312 L 164.589844 214.523438 L 179.410156 215.949219 Z M 179.019531 218.195312 " fill-opacity="1" fill-rule="nonzero"/><path fill="#6b184e" d="M 167.820312 207.710938 L 170.140625 199.144531 L 170.082031 208.019531 Z M 167.820312 207.710938 " fill-opacity="1" fill-rule="nonzero"/><g mask="url(#2c1129bfbf)"><g transform="matrix(1, 0, 0, 1, 153, 189)"><g clip-path="url(#fcdc870424)"><path fill="#ffffff" d="M 10.664062 6.445312 C 11.105469 6.8125 11.53125 7.1875 11.941406 7.570312 C 12.351562 7.953125 12.742188 8.339844 13.109375 8.726562 C 13.476562 9.109375 13.8125 9.492188 14.121094 9.863281 C 14.429688 10.238281 14.703125 10.601562 14.941406 10.945312 C 15.175781 11.292969 15.375 11.621094 15.53125 11.929688 C 15.691406 12.238281 15.804688 12.519531 15.878906 12.777344 C 15.949219 13.03125 15.976562 13.257812 15.960938 13.453125 C 15.945312 13.644531 15.882812 13.804688 15.78125 13.929688 C 15.675781 14.058594 15.527344 14.144531 15.339844 14.199219 C 15.152344 14.25 14.925781 14.261719 14.660156 14.238281 C 14.394531 14.214844 14.097656 14.152344 13.765625 14.054688 C 13.433594 13.957031 13.074219 13.820312 12.691406 13.652344 C 12.304688 13.480469 11.898438 13.28125 11.476562 13.046875 C 11.050781 12.8125 10.617188 12.546875 10.167969 12.257812 C 9.722656 11.96875 9.273438 11.65625 8.820312 11.324219 C 8.367188 10.988281 7.921875 10.636719 7.480469 10.273438 C 7.039062 9.90625 6.613281 9.53125 6.203125 9.148438 C 5.792969 8.765625 5.402344 8.378906 5.035156 7.992188 C 4.667969 7.609375 4.332031 7.226562 4.023438 6.855469 C 3.714844 6.480469 3.441406 6.121094 3.203125 5.773438 C 2.96875 5.425781 2.769531 5.097656 2.613281 4.789062 C 2.453125 4.480469 2.339844 4.199219 2.265625 3.945312 C 2.195312 3.6875 2.167969 3.460938 2.183594 3.269531 C 2.199219 3.074219 2.261719 2.914062 2.367188 2.789062 C 2.46875 2.660156 2.617188 2.574219 2.804688 2.523438 C 2.992188 2.46875 3.21875 2.457031 3.484375 2.480469 C 3.75 2.503906 4.046875 2.566406 4.378906 2.664062 C 4.710938 2.761719 5.070312 2.898438 5.453125 3.066406 C 5.839844 3.238281 6.246094 3.4375 6.667969 3.671875 C 7.09375 3.910156 7.527344 4.171875 7.976562 4.460938 C 8.421875 4.75 8.871094 5.0625 9.324219 5.398438 C 9.777344 5.730469 10.222656 6.082031 10.664062 6.445312 Z M 10.664062 6.445312 " fill-opacity="1" fill-rule="nonzero"/></g></g></g><path fill="#6b184e" d="M 190.015625 228.703125 C 189.730469 228.703125 189.433594 228.589844 189.214844 228.371094 C 168.894531 208.203125 150.113281 192.171875 131.792969 179.375 C 131.277344 179.007812 131.152344 178.300781 131.503906 177.789062 C 131.871094 177.273438 132.578125 177.148438 133.09375 177.503906 C 151.519531 190.382812 170.402344 206.492188 190.8125 226.75 C 191.257812 227.195312 191.257812 227.914062 190.8125 228.359375 C 190.609375 228.601562 190.3125 228.703125 190.015625 228.703125 Z M 190.015625 228.703125 " fill-opacity="1" fill-rule="nonzero"/><path fill="#6b184e" d="M 164.988281 205.394531 L 150.546875 201.734375 L 165.378906 203.148438 Z M 164.988281 205.394531 " fill-opacity="1" fill-rule="nonzero"/><path fill="#6b184e" d="M 154.875 196.601562 L 157.191406 188.042969 L 157.136719 196.90625 Z M 154.875 196.601562 " fill-opacity="1" fill-rule="nonzero"/><path fill="#6b184e" d="M 149.328125 191.820312 L 140.980469 190.632812 L 149.339844 189.539062 Z M 149.328125 191.820312 " fill-opacity="1" fill-rule="nonzero"/><path fill="#1ebc61" d="M 232.265625 131.5625 C 214.011719 130.613281 192.527344 150.28125 189.582031 163.414062 C 203.246094 165.75 229.136719 149.574219 232.265625 131.5625 Z M 232.265625 131.5625 " fill-opacity="1" fill-rule="nonzero"/><path fill="#6b184e" d="M 232.265625 131.5625 C 229.136719 149.574219 203.234375 165.75 189.582031 163.414062 C 189.820312 162.316406 190.199219 161.175781 190.699219 160 C 203.792969 159.328125 223.394531 146.550781 228.535156 131.652344 C 229.789062 131.539062 231.035156 131.503906 232.265625 131.5625 Z M 232.265625 131.5625 " fill-opacity="0.3" fill-rule="nonzero"/><path fill="#ffffff" d="M 232.265625 131.5625 C 232.09375 132.554688 231.855469 133.535156 231.546875 134.515625 C 226.753906 134.789062 221.808594 136.339844 217.117188 138.726562 C 218.511719 144.132812 206.867188 152.632812 202.058594 149.792969 C 197.582031 154.308594 194.148438 159.214844 192.445312 163.640625 C 191.453125 163.640625 190.496094 163.574219 189.59375 163.414062 C 192.527344 150.292969 214.011719 130.625 232.265625 131.5625 Z M 232.265625 131.5625 " fill-opacity="0.55" fill-rule="nonzero"/><path fill="#6b184e" d="M 192.367188 165.636719 C 191.269531 165.636719 190.230469 165.558594 189.238281 165.386719 C 188.703125 165.296875 188.222656 164.988281 187.914062 164.53125 C 187.605469 164.074219 187.503906 163.515625 187.628906 162.980469 C 189.191406 156.03125 195.4375 147.476562 203.929688 140.652344 C 213.269531 133.15625 223.636719 129.121094 232.371094 129.5625 C 232.941406 129.597656 233.476562 129.859375 233.832031 130.316406 C 234.183594 130.761719 234.332031 131.34375 234.242188 131.902344 C 232.722656 140.652344 226.078125 149.710938 216.019531 156.75 C 207.960938 162.410156 199.214844 165.636719 192.367188 165.636719 Z M 192.195312 161.644531 C 198.210938 161.714844 206.328125 158.667969 213.726562 153.488281 C 221.867188 147.785156 227.6875 140.492188 229.742188 133.558594 C 214.082031 134.367188 196.453125 150.203125 192.195312 161.644531 Z M 192.195312 161.644531 " fill-opacity="1" fill-rule="nonzero"/><path fill="#6b184e" d="M 189.582031 197.476562 C 189.023438 197.476562 188.460938 197.285156 188.003906 196.894531 L 114.953125 134.914062 C 113.925781 134.046875 113.808594 132.519531 114.679688 131.492188 C 115.546875 130.464844 117.074219 130.351562 118.101562 131.21875 L 191.15625 193.199219 C 192.183594 194.066406 192.296875 195.597656 191.429688 196.621094 C 190.949219 197.191406 190.265625 197.476562 189.582031 197.476562 Z M 189.582031 197.476562 " fill-opacity="1" fill-rule="nonzero"/><path fill="#1ebc61" d="M 148.628906 131.5625 C 166.886719 130.613281 188.371094 150.28125 191.316406 163.414062 C 177.664062 165.75 151.757812 149.574219 148.628906 131.5625 Z M 148.628906 131.5625 " fill-opacity="1" fill-rule="nonzero"/><path fill="#ffffff" d="M 168.230469 156.589844 C 158.722656 150.554688 150.332031 141.335938 148.628906 131.574219 C 158.3125 131.070312 168.90625 136.363281 177.148438 143.414062 C 172.160156 140.230469 166.738281 137.871094 161.382812 136.945312 C 158.3125 136.421875 155.902344 139.535156 157.160156 142.386719 C 159.464844 147.589844 163.472656 152.472656 168.230469 156.589844 Z M 168.230469 156.589844 " fill-opacity="0.55" fill-rule="nonzero"/><path fill="#6b184e" d="M 191.316406 163.425781 C 182.742188 164.882812 169.351562 159.054688 159.796875 150.066406 C 163.152344 152.027344 166.601562 153.578125 169.898438 154.617188 C 175.09375 156.25 179.421875 150.234375 176.257812 145.796875 C 174.214844 142.933594 171.65625 140.058594 168.757812 137.378906 C 180.046875 144.042969 189.445312 155.050781 191.316406 163.425781 Z M 191.316406 163.425781 " fill-opacity="0.3" fill-rule="nonzero"/><path fill="#6b184e" d="M 188.53125 165.636719 C 181.679688 165.636719 172.945312 162.398438 164.875 156.75 C 154.816406 149.710938 148.171875 140.652344 146.65625 131.902344 C 146.550781 131.34375 146.699219 130.761719 147.066406 130.316406 C 147.421875 129.871094 147.957031 129.597656 148.527344 129.5625 C 157.261719 129.121094 167.628906 133.15625 176.964844 140.652344 C 185.460938 147.476562 191.703125 156.03125 193.269531 162.980469 C 193.382812 163.515625 193.28125 164.074219 192.984375 164.53125 C 192.675781 164.988281 192.195312 165.296875 191.660156 165.386719 C 190.675781 165.558594 189.625 165.636719 188.53125 165.636719 Z M 151.152344 133.558594 C 153.207031 140.492188 159.042969 147.785156 167.171875 153.488281 C 174.570312 158.667969 182.695312 161.714844 188.703125 161.644531 C 184.453125 150.203125 166.828125 134.367188 151.152344 133.558594 Z M 151.152344 133.558594 " fill-opacity="1" fill-rule="nonzero"/><g mask="url(#6e4096dea0)"><g transform="matrix(1, 0, 0, 1, 158, 140)"><g clip-path="url(#e487ef8848)"><path fill="#ffffff" d="M 9.320312 4.277344 C 9.675781 4.53125 10.019531 4.792969 10.347656 5.066406 C 10.675781 5.339844 10.984375 5.621094 11.273438 5.90625 C 11.5625 6.191406 11.828125 6.480469 12.066406 6.769531 C 12.304688 7.054688 12.515625 7.339844 12.695312 7.617188 C 12.875 7.898438 13.019531 8.164062 13.132812 8.421875 C 13.246094 8.683594 13.324219 8.925781 13.367188 9.152344 C 13.40625 9.382812 13.414062 9.589844 13.382812 9.78125 C 13.355469 9.96875 13.289062 10.136719 13.1875 10.277344 C 13.085938 10.421875 12.953125 10.539062 12.78125 10.628906 C 12.613281 10.722656 12.414062 10.785156 12.1875 10.820312 C 11.957031 10.859375 11.699219 10.867188 11.417969 10.847656 C 11.136719 10.824219 10.835938 10.777344 10.511719 10.703125 C 10.191406 10.625 9.855469 10.523438 9.503906 10.394531 C 9.152344 10.265625 8.792969 10.113281 8.425781 9.933594 C 8.058594 9.757812 7.691406 9.558594 7.324219 9.34375 C 6.953125 9.125 6.59375 8.890625 6.238281 8.640625 C 5.882812 8.386719 5.542969 8.125 5.214844 7.851562 C 4.882812 7.578125 4.574219 7.296875 4.285156 7.011719 C 3.996094 6.726562 3.734375 6.4375 3.492188 6.148438 C 3.253906 5.863281 3.046875 5.578125 2.867188 5.300781 C 2.6875 5.023438 2.539062 4.753906 2.425781 4.496094 C 2.316406 4.238281 2.238281 3.992188 2.195312 3.765625 C 2.152344 3.535156 2.144531 3.328125 2.175781 3.136719 C 2.207031 2.949219 2.273438 2.78125 2.375 2.640625 C 2.472656 2.496094 2.609375 2.378906 2.777344 2.289062 C 2.945312 2.195312 3.144531 2.132812 3.375 2.097656 C 3.605469 2.058594 3.859375 2.050781 4.140625 2.074219 C 4.421875 2.09375 4.722656 2.140625 5.046875 2.21875 C 5.371094 2.292969 5.707031 2.394531 6.058594 2.523438 C 6.410156 2.652344 6.769531 2.808594 7.136719 2.984375 C 7.503906 3.160156 7.871094 3.359375 8.238281 3.574219 C 8.605469 3.792969 8.96875 4.027344 9.320312 4.277344 Z M 9.320312 4.277344 " fill-opacity="1" fill-rule="nonzero"/></g></g></g><path fill="#6b184e" d="M 189.582031 189.136719 C 188.792969 189.136719 188.015625 188.75 187.546875 188.042969 C 186.808594 186.925781 187.125 185.417969 188.246094 184.6875 L 265.203125 134.035156 C 266.320312 133.292969 267.828125 133.613281 268.558594 134.730469 C 269.300781 135.851562 268.980469 137.355469 267.863281 138.085938 L 190.90625 188.738281 C 190.503906 189 190.039062 189.136719 189.582031 189.136719 Z M 189.582031 189.136719 " fill-opacity="1" fill-rule="nonzero"/><path fill="#f7c714" d="M 122.945312 98.304688 C 133.503906 112.121094 130.855469 131.878906 117.019531 142.433594 C 112.953125 145.535156 108.375 147.5 103.660156 148.367188 C 100.167969 149.015625 96.59375 149.0625 93.113281 148.523438 C 91.421875 148.273438 89.765625 147.875 88.144531 147.339844 C 82.472656 145.5 77.277344 142.046875 73.292969 137.070312 C 73.144531 136.878906 72.996094 136.695312 72.847656 136.511719 C 62.289062 122.683594 64.9375 102.925781 78.761719 92.375 C 80.210938 91.265625 81.730469 90.308594 83.292969 89.488281 C 88.867188 86.566406 95.03125 85.460938 101.023438 86.066406 C 102.726562 86.234375 104.402344 86.542969 106.058594 86.988281 C 109.449219 87.890625 112.691406 89.363281 115.648438 91.378906 C 118.378906 93.242188 120.84375 95.554688 122.945312 98.304688 Z M 122.945312 98.304688 " fill-opacity="1" fill-rule="nonzero"/><path fill="#ffffff" d="M 122.945312 98.304688 C 123.421875 98.933594 123.867188 99.570312 124.300781 100.222656 C 113.457031 87.992188 94.824219 86.042969 81.628906 96.117188 C 68.417969 106.1875 65.40625 124.660156 74.355469 138.335938 C 73.839844 137.753906 73.339844 137.152344 72.859375 136.523438 C 62.300781 122.695312 64.949219 102.9375 78.773438 92.382812 C 92.609375 81.832031 112.382812 84.480469 122.945312 98.304688 Z M 122.945312 98.304688 " fill-opacity="0.55" fill-rule="nonzero"/><path fill="#f89e1d" d="M 122.945312 98.304688 C 133.503906 112.121094 130.855469 131.878906 117.019531 142.433594 C 103.183594 152.984375 83.421875 150.339844 72.859375 136.511719 C 71.945312 135.3125 71.136719 134.070312 70.417969 132.792969 C 81.410156 143.640625 99.015625 145.011719 111.640625 135.371094 C 124.277344 125.730469 127.578125 108.402344 120.007812 94.953125 C 121.046875 96 122.03125 97.109375 122.945312 98.304688 Z M 122.945312 98.304688 " fill-opacity="1" fill-rule="nonzero"/><path fill="#f9dd6a" d="M 111.230469 134.871094 C 101.605469 142.214844 87.792969 140.367188 80.429688 130.738281 C 73.078125 121.121094 74.925781 107.316406 84.5625 99.972656 C 94.1875 92.625 108 94.472656 115.363281 104.101562 C 122.714844 113.707031 120.867188 127.523438 111.230469 134.871094 Z M 111.230469 134.871094 " fill-opacity="1" fill-rule="nonzero"/><path fill="#ffffff" d="M 115.363281 104.089844 C 115.71875 104.558594 116.058594 105.035156 116.378906 105.527344 C 108.808594 97.097656 95.863281 95.761719 86.707031 102.753906 C 77.550781 109.738281 75.429688 122.570312 81.570312 132.097656 C 81.183594 131.664062 80.804688 131.21875 80.453125 130.738281 C 73.101562 121.121094 74.949219 107.308594 84.574219 99.960938 C 94.195312 92.613281 108.011719 94.472656 115.363281 104.089844 Z M 115.363281 104.089844 " fill-opacity="0.55" fill-rule="nonzero"/><path fill="#6b184e" d="M 107.0625 116.480469 C 108.808594 118.773438 109.039062 121.808594 106.914062 124.796875 L 109.039062 127.578125 L 105.5 130.28125 L 103.707031 127.933594 C 101.710938 129.382812 99.425781 130.316406 98.042969 130.511719 L 96.285156 126.484375 C 97.816406 126.199219 99.949219 125.480469 101.699219 124.132812 C 103.582031 122.695312 103.980469 121.15625 103.078125 119.96875 C 102.210938 118.839844 100.863281 118.851562 98.078125 119.742188 C 94.265625 120.996094 91.011719 120.824219 89.003906 118.191406 C 87.097656 115.691406 87.234375 112.382812 89.609375 109.484375 L 87.472656 106.703125 L 91.011719 104 L 92.988281 106.589844 C 94.515625 105.628906 95.886719 105.128906 97.015625 104.867188 L 98.636719 108.882812 C 97.644531 109.085938 95.957031 109.566406 94.1875 110.921875 C 92.40625 112.28125 92.164062 113.742188 92.882812 114.6875 C 93.761719 115.839844 95.179688 115.578125 98.203125 114.675781 C 102.324219 113.410156 105.109375 113.921875 107.0625 116.480469 Z M 107.0625 116.480469 " fill-opacity="1" fill-rule="nonzero"/><path fill="#fce5e5" d="M 101.035156 86.085938 L 88.15625 147.363281 C 82.484375 145.523438 77.289062 142.066406 73.304688 137.09375 L 83.316406 89.511719 C 88.878906 86.589844 95.054688 85.484375 101.035156 86.085938 Z M 101.035156 86.085938 " fill-opacity="0.27" fill-rule="nonzero"/><path fill="#fce5e5" d="M 112.738281 89.625 L 101.984375 148.398438 C 98.488281 149.050781 96.617188 149.0625 93.136719 148.535156 L 106.082031 87 C 109.460938 87.914062 109.78125 87.605469 112.738281 89.625 Z M 112.738281 89.625 " fill-opacity="0.27" fill-rule="nonzero"/><path fill="#6b184e" d="M 97.929688 140.871094 C 90.851562 140.871094 83.855469 137.699219 79.242188 131.652344 C 75.441406 126.679688 73.808594 120.519531 74.640625 114.300781 C 75.472656 108.082031 78.671875 102.574219 83.648438 98.773438 C 88.625 94.972656 94.789062 93.34375 101.011719 94.175781 C 107.234375 95.007812 112.75 98.203125 116.550781 103.175781 C 120.351562 108.152344 121.984375 114.3125 121.152344 120.527344 C 120.316406 126.746094 117.121094 132.257812 112.144531 136.054688 C 107.90625 139.296875 102.894531 140.871094 97.929688 140.871094 Z M 97.851562 96.972656 C 93.386719 96.972656 89.082031 98.417969 85.488281 101.15625 C 81.148438 104.464844 78.363281 109.28125 77.632812 114.699219 C 76.902344 120.117188 78.328125 125.492188 81.640625 129.828125 C 88.488281 138.792969 101.355469 140.515625 110.328125 133.671875 C 114.667969 130.363281 117.453125 125.546875 118.183594 120.128906 C 118.914062 114.710938 117.488281 109.335938 114.175781 105.003906 C 110.863281 100.667969 106.058594 97.882812 100.625 97.152344 C 99.6875 97.027344 98.761719 96.972656 97.851562 96.972656 Z M 97.851562 96.972656 " fill-opacity="1" fill-rule="nonzero"/><path fill="#6b184e" d="M 97.929688 150.726562 C 96.242188 150.726562 94.539062 150.601562 92.851562 150.339844 C 91.09375 150.078125 89.324219 149.65625 87.585938 149.085938 C 81.386719 147.074219 75.953125 143.324219 71.878906 138.222656 C 71.707031 138.019531 71.558594 137.824219 71.410156 137.628906 C 60.257812 123.027344 63.066406 102.09375 77.667969 90.949219 C 79.183594 89.796875 80.792969 88.769531 82.460938 87.890625 C 88.226562 84.867188 94.710938 83.625 101.207031 84.273438 C 103 84.457031 104.792969 84.785156 106.527344 85.242188 C 110.167969 86.210938 113.582031 87.777344 116.675781 89.898438 C 119.597656 91.882812 122.203125 94.347656 124.382812 97.210938 C 135.535156 111.800781 132.726562 132.746094 118.125 143.894531 C 113.925781 147.097656 109.164062 149.210938 104.003906 150.167969 C 101.996094 150.53125 99.960938 150.726562 97.929688 150.726562 Z M 97.863281 87.742188 C 93.089844 87.742188 88.410156 88.894531 84.160156 91.117188 C 82.679688 91.894531 81.238281 92.808594 79.890625 93.832031 C 66.878906 103.757812 64.378906 122.421875 74.320312 135.417969 C 74.457031 135.589844 74.59375 135.757812 74.730469 135.941406 C 78.375 140.492188 83.214844 143.835938 88.730469 145.628906 C 90.269531 146.128906 91.84375 146.503906 93.410156 146.746094 C 96.730469 147.246094 100.078125 147.203125 103.351562 146.597656 C 107.953125 145.742188 112.1875 143.859375 115.933594 141.007812 C 122.234375 136.191406 126.289062 129.222656 127.339844 121.375 C 128.390625 113.523438 126.324219 105.722656 121.503906 99.421875 C 119.554688 96.878906 117.246094 94.6875 114.644531 92.910156 C 111.890625 91.027344 108.855469 89.636719 105.613281 88.769531 C 104.0625 88.359375 102.460938 88.0625 100.863281 87.902344 C 99.847656 87.789062 98.855469 87.742188 97.863281 87.742188 Z M 97.863281 87.742188 " fill-opacity="1" fill-rule="nonzero"/><path fill="#f7c714" d="M 306.074219 135.632812 C 296.09375 146.472656 279.210938 147.167969 268.367188 137.195312 C 265.179688 134.265625 262.863281 130.738281 261.445312 126.941406 C 260.398438 124.121094 259.824219 121.15625 259.757812 118.179688 C 259.722656 116.742188 259.8125 115.292969 260.007812 113.867188 C 260.703125 108.871094 262.828125 104.03125 266.390625 99.984375 C 266.527344 99.835938 266.652344 99.675781 266.800781 99.527344 C 276.777344 88.6875 293.664062 87.992188 304.507812 97.964844 C 305.652344 99.011719 306.667969 100.132812 307.582031 101.316406 C 310.835938 105.527344 312.660156 110.511719 313.050781 115.589844 C 313.152344 117.027344 313.140625 118.476562 313.027344 119.914062 C 312.773438 122.867188 312.023438 125.789062 310.765625 128.550781 C 309.625 131.070312 308.058594 133.476562 306.074219 135.632812 Z M 306.074219 135.632812 " fill-opacity="1" fill-rule="nonzero"/><path fill="#ffffff" d="M 306.074219 135.632812 C 305.617188 136.125 305.148438 136.59375 304.679688 137.046875 C 313.289062 126.210938 312.179688 110.398438 301.828125 100.871094 C 291.472656 91.347656 275.613281 91.550781 265.511719 101.019531 C 265.921875 100.507812 266.355469 100.003906 266.800781 99.515625 C 276.777344 88.675781 293.664062 87.980469 304.507812 97.953125 C 315.355469 107.921875 316.0625 124.796875 306.074219 135.632812 Z M 306.074219 135.632812 " fill-opacity="0.55" fill-rule="nonzero"/><path fill="#f89e1d" d="M 306.074219 135.632812 C 296.09375 146.472656 279.210938 147.167969 268.367188 137.195312 C 257.519531 127.226562 256.824219 110.351562 266.800781 99.515625 C 267.667969 98.578125 268.582031 97.710938 269.542969 96.925781 C 262.109375 107.683594 263.546875 122.558594 273.457031 131.664062 C 283.367188 140.777344 298.308594 140.984375 308.425781 132.691406 C 307.71875 133.707031 306.941406 134.699219 306.074219 135.632812 Z M 306.074219 135.632812 " fill-opacity="1" fill-rule="nonzero"/><path fill="#f9dd6a" d="M 273.84375 131.253906 C 266.300781 124.304688 265.808594 112.519531 272.761719 104.980469 C 279.714844 97.4375 291.507812 96.949219 299.050781 103.894531 C 306.597656 110.84375 307.089844 122.628906 300.136719 130.167969 C 293.183594 137.710938 281.390625 138.199219 273.84375 131.253906 Z M 273.84375 131.253906 " fill-opacity="1" fill-rule="nonzero"/><path fill="#ffffff" d="M 300.125 130.167969 C 299.78125 130.535156 299.429688 130.886719 299.074219 131.21875 C 304.988281 123.667969 304.203125 112.679688 297.019531 106.074219 C 289.839844 99.46875 278.8125 99.59375 271.777344 106.109375 C 272.085938 105.722656 272.40625 105.34375 272.738281 104.980469 C 279.691406 97.4375 291.484375 96.949219 299.03125 103.882812 C 306.574219 110.820312 307.078125 122.617188 300.125 130.167969 Z M 300.125 130.167969 " fill-opacity="0.55" fill-rule="nonzero"/><path fill="#6b184e" d="M 288.574219 125.070312 C 286.917969 126.859375 284.417969 127.5 281.609375 126.164062 L 279.597656 128.34375 L 276.824219 125.789062 L 278.515625 123.953125 C 277.007812 122.503906 275.898438 120.734375 275.523438 119.617188 L 278.628906 117.5625 C 279.085938 118.804688 280.011719 120.472656 281.378906 121.726562 C 282.863281 123.085938 284.199219 123.1875 285.054688 122.261719 C 285.867188 121.375 285.660156 120.253906 284.519531 118.066406 C 282.910156 115.0625 282.578125 112.335938 284.484375 110.273438 C 286.289062 108.3125 289.0625 107.945312 291.835938 109.496094 L 293.847656 107.308594 L 296.621094 109.863281 L 294.75 111.894531 C 295.777344 113.023438 296.390625 114.09375 296.78125 114.996094 L 293.675781 116.933594 C 293.355469 116.136719 292.714844 114.800781 291.324219 113.523438 C 289.929688 112.246094 288.675781 112.246094 287.988281 112.988281 C 287.15625 113.890625 287.589844 115.03125 288.789062 117.425781 C 290.433594 120.664062 290.410156 123.0625 288.574219 125.070312 Z M 288.574219 125.070312 " fill-opacity="1" fill-rule="nonzero"/><path fill="#fce5e5" d="M 313.058594 115.578125 L 260.019531 113.855469 C 260.714844 108.859375 262.839844 104.019531 266.402344 99.972656 L 307.59375 101.304688 C 310.84375 105.515625 312.671875 110.488281 313.058594 115.578125 Z M 313.058594 115.578125 " fill-opacity="0.27" fill-rule="nonzero"/><path fill="#fce5e5" d="M 311.816406 125.84375 L 261.171875 125.527344 C 260.121094 122.707031 259.824219 121.144531 259.757812 118.167969 L 313.027344 119.902344 C 312.773438 122.855469 313.070312 123.085938 311.816406 125.84375 Z M 311.816406 125.84375 " fill-opacity="0.27" fill-rule="nonzero"/><path fill="#6b184e" d="M 286.414062 137.4375 C 281.414062 137.4375 276.664062 135.589844 272.976562 132.199219 C 264.90625 124.785156 264.390625 112.191406 271.8125 104.125 C 279.234375 96.058594 291.835938 95.542969 299.910156 102.960938 C 307.980469 110.375 308.492188 122.96875 301.074219 131.035156 C 297.476562 134.9375 292.578125 137.207031 287.269531 137.425781 C 286.984375 137.425781 286.699219 137.4375 286.414062 137.4375 Z M 274.703125 130.316406 C 278.101562 133.441406 282.523438 135.0625 287.15625 134.871094 C 291.792969 134.675781 296.0625 132.703125 299.191406 129.300781 C 305.664062 122.273438 305.207031 111.300781 298.171875 104.832031 C 291.140625 98.363281 280.160156 98.820312 273.683594 105.847656 C 267.210938 112.863281 267.667969 123.847656 274.703125 130.316406 Z M 274.703125 130.316406 " fill-opacity="1" fill-rule="nonzero"/><path fill="#6b184e" d="M 286.425781 145.96875 C 279.542969 145.96875 272.636719 143.492188 267.1875 138.472656 C 263.867188 135.417969 261.390625 131.742188 259.8125 127.546875 C 258.695312 124.554688 258.089844 121.417969 258.023438 118.214844 C 257.988281 116.695312 258.078125 115.144531 258.296875 113.617188 C 259.0625 108.117188 261.414062 103.007812 265.101562 98.820312 C 265.25 98.660156 265.386719 98.5 265.535156 98.339844 C 276.152344 86.816406 294.167969 86.066406 305.707031 96.675781 C 306.90625 97.769531 308.003906 98.980469 308.984375 100.246094 C 312.375 104.636719 314.382812 109.894531 314.808594 115.453125 C 314.921875 116.980469 314.910156 118.53125 314.773438 120.0625 C 314.5 123.265625 313.6875 126.359375 312.363281 129.269531 C 311.132812 132.015625 309.441406 134.5625 307.363281 136.820312 C 301.757812 142.890625 294.109375 145.96875 286.425781 145.96875 Z M 286.460938 92.660156 C 279.726562 92.660156 273 95.363281 268.089844 100.691406 C 267.964844 100.828125 267.839844 100.976562 267.714844 101.113281 C 264.484375 104.773438 262.417969 109.269531 261.742188 114.09375 C 261.550781 115.441406 261.46875 116.796875 261.503906 118.132812 C 261.574219 120.949219 262.097656 123.710938 263.078125 126.335938 C 264.460938 130.019531 266.628906 133.238281 269.542969 135.917969 C 279.65625 145.226562 295.46875 144.578125 304.785156 134.457031 C 306.609375 132.472656 308.082031 130.25 309.167969 127.832031 C 310.320312 125.273438 311.039062 122.570312 311.28125 119.753906 C 311.394531 118.40625 311.40625 117.050781 311.300781 115.703125 C 310.9375 110.832031 309.179688 106.222656 306.199219 102.367188 C 305.34375 101.25 304.371094 100.199219 303.320312 99.230469 C 298.550781 94.824219 292.5 92.660156 286.460938 92.660156 Z M 306.074219 135.632812 Z M 306.074219 135.632812 " fill-opacity="1" fill-rule="nonzero"/><path fill="#1ebc61" d="M 248.011719 148.421875 C 261.527344 145.46875 280.011719 157.492188 283.835938 166.9375 C 273.925781 170.371094 252.578125 161.484375 248.011719 148.421875 Z M 248.011719 148.421875 " fill-opacity="1" fill-rule="nonzero"/><path fill="#6b184e" d="M 248.011719 148.421875 C 252.578125 161.484375 273.914062 170.371094 283.835938 166.9375 C 283.515625 166.152344 283.09375 165.339844 282.578125 164.519531 C 272.714844 165.636719 256.503906 158.507812 250.808594 148.023438 C 249.859375 148.089844 248.921875 148.21875 248.011719 148.421875 Z M 248.011719 148.421875 " fill-opacity="0.3" fill-rule="nonzero"/><path fill="#ffffff" d="M 275.089844 157.136719 C 271.914062 162.578125 259.390625 155.277344 262.566406 149.847656 Z M 275.089844 157.136719 " fill-opacity="0.55" fill-rule="nonzero"/><path fill="#6b184e" d="M 278.824219 169.492188 C 274.152344 169.492188 268.570312 168.113281 263.125 165.5 C 254.664062 161.449219 248.535156 155.4375 246.285156 149.015625 C 246.113281 148.523438 246.160156 147.976562 246.410156 147.53125 C 246.664062 147.074219 247.097656 146.757812 247.609375 146.644531 C 262.53125 143.378906 281.503906 156.363281 285.511719 166.253906 C 285.695312 166.722656 285.683594 167.234375 285.476562 167.691406 C 285.273438 168.148438 284.886719 168.488281 284.417969 168.660156 C 282.808594 169.21875 280.902344 169.492188 278.824219 169.492188 Z M 250.601562 149.859375 C 255.910156 160.332031 272.304688 166.925781 281.164062 165.695312 C 276.4375 157.9375 262.039062 148.832031 250.601562 149.859375 Z M 250.601562 149.859375 " fill-opacity="1" fill-rule="nonzero"/><g clip-path="url(#98a2d6e489)"><path fill="#6b184e" d="M 305.023438 337.492188 L 84.6875 337.492188 C 83.351562 337.492188 82.253906 336.410156 82.253906 335.0625 C 82.253906 333.726562 83.339844 332.632812 84.6875 332.632812 L 305.023438 332.632812 C 306.359375 332.632812 307.453125 333.714844 307.453125 335.0625 C 307.453125 336.398438 306.359375 337.492188 305.023438 337.492188 Z M 305.023438 337.492188 " fill-opacity="1" fill-rule="nonzero"/></g><path fill="#6b184e" d="M 30.472656 185.984375 C 30.765625 186.035156 31.054688 186.113281 31.335938 186.21875 C 31.617188 186.324219 31.882812 186.457031 32.136719 186.613281 C 32.390625 186.773438 32.628906 186.957031 32.847656 187.160156 C 33.066406 187.367188 33.261719 187.589844 33.433594 187.835938 C 33.609375 188.078125 33.757812 188.335938 33.882812 188.609375 C 34.003906 188.882812 34.101562 189.167969 34.167969 189.457031 C 34.234375 189.75 34.273438 190.046875 34.28125 190.34375 C 34.292969 190.644531 34.269531 190.941406 34.222656 191.238281 C 34.171875 191.535156 34.09375 191.820312 33.988281 192.101562 C 33.882812 192.382812 33.75 192.648438 33.589844 192.902344 C 33.429688 193.15625 33.25 193.394531 33.042969 193.613281 C 32.839844 193.828125 32.613281 194.027344 32.371094 194.199219 C 32.125 194.375 31.867188 194.523438 31.59375 194.644531 C 31.320312 194.769531 31.035156 194.863281 30.746094 194.929688 C 30.453125 195 30.15625 195.035156 29.855469 195.046875 C 29.558594 195.054688 29.257812 195.035156 28.964844 194.984375 C 28.667969 194.9375 28.378906 194.859375 28.097656 194.753906 C 27.820312 194.644531 27.550781 194.511719 27.296875 194.355469 C 27.042969 194.195312 26.808594 194.015625 26.589844 193.808594 C 26.371094 193.601562 26.171875 193.378906 26 193.132812 C 25.824219 192.890625 25.675781 192.632812 25.554688 192.359375 C 25.429688 192.085938 25.335938 191.804688 25.269531 191.511719 C 25.199219 191.21875 25.164062 190.921875 25.152344 190.625 C 25.144531 190.324219 25.164062 190.027344 25.214844 189.730469 C 25.261719 189.4375 25.339844 189.148438 25.449219 188.867188 C 25.554688 188.585938 25.6875 188.320312 25.84375 188.066406 C 26.003906 187.8125 26.1875 187.574219 26.390625 187.359375 C 26.597656 187.140625 26.820312 186.945312 27.066406 186.769531 C 27.308594 186.59375 27.570312 186.445312 27.84375 186.324219 C 28.117188 186.199219 28.398438 186.105469 28.691406 186.039062 C 28.984375 185.972656 29.277344 185.933594 29.578125 185.921875 C 29.878906 185.914062 30.175781 185.933594 30.472656 185.984375 Z M 30.472656 185.984375 " fill-opacity="1" fill-rule="nonzero"/><g clip-path="url(#993e92e51f)"><path fill="#6b184e" d="M 15.324219 222.679688 C 15.753906 222.699219 16.160156 222.800781 16.546875 222.984375 C 16.9375 223.164062 17.273438 223.414062 17.5625 223.730469 C 17.851562 224.050781 18.066406 224.410156 18.210938 224.8125 C 18.355469 225.214844 18.417969 225.628906 18.398438 226.058594 C 18.375 226.484375 18.273438 226.894531 18.09375 227.28125 C 17.910156 227.667969 17.660156 228.003906 17.34375 228.292969 C 17.023438 228.582031 16.664062 228.796875 16.261719 228.941406 C 15.859375 229.085938 15.441406 229.148438 15.015625 229.128906 C 14.585938 229.105469 14.179688 229.003906 13.792969 228.824219 C 13.402344 228.640625 13.066406 228.390625 12.777344 228.074219 C 12.492188 227.757812 12.273438 227.394531 12.128906 226.992188 C 11.984375 226.589844 11.921875 226.175781 11.941406 225.746094 C 11.964844 225.320312 12.066406 224.914062 12.25 224.523438 C 12.429688 224.136719 12.679688 223.800781 13 223.511719 C 13.316406 223.226562 13.675781 223.007812 14.078125 222.863281 C 14.480469 222.71875 14.898438 222.65625 15.324219 222.679688 Z M 15.324219 222.679688 " fill-opacity="1" fill-rule="nonzero"/></g><g clip-path="url(#b369dd4ca5)"><path fill="#6b184e" d="M 363.53125 229.023438 C 363.53125 229.496094 363.441406 229.953125 363.257812 230.394531 C 363.078125 230.832031 362.820312 231.21875 362.480469 231.554688 C 362.144531 231.890625 361.757812 232.148438 361.320312 232.332031 C 360.878906 232.511719 360.421875 232.605469 359.949219 232.605469 C 359.472656 232.605469 359.015625 232.511719 358.574219 232.332031 C 358.136719 232.148438 357.75 231.890625 357.414062 231.554688 C 357.078125 231.21875 356.816406 230.832031 356.636719 230.394531 C 356.453125 229.953125 356.363281 229.496094 356.363281 229.023438 C 356.363281 228.546875 356.453125 228.089844 356.636719 227.652344 C 356.816406 227.210938 357.078125 226.824219 357.414062 226.488281 C 357.75 226.152344 358.136719 225.894531 358.574219 225.710938 C 359.015625 225.53125 359.472656 225.441406 359.949219 225.441406 C 360.421875 225.441406 360.878906 225.53125 361.320312 225.710938 C 361.757812 225.894531 362.144531 226.152344 362.480469 226.488281 C 362.820312 226.824219 363.078125 227.210938 363.257812 227.652344 C 363.441406 228.089844 363.53125 228.546875 363.53125 229.023438 Z M 363.53125 229.023438 " fill-opacity="1" fill-rule="nonzero"/></g><path fill="#6b184e" d="M 342.46875 259.378906 C 342.46875 259.808594 342.386719 260.21875 342.222656 260.613281 C 342.058594 261.011719 341.824219 261.359375 341.523438 261.664062 C 341.21875 261.964844 340.871094 262.199219 340.472656 262.363281 C 340.078125 262.527344 339.667969 262.609375 339.238281 262.609375 C 338.808594 262.609375 338.398438 262.527344 338 262.363281 C 337.605469 262.199219 337.257812 261.964844 336.953125 261.664062 C 336.652344 261.359375 336.417969 261.011719 336.253906 260.613281 C 336.089844 260.21875 336.007812 259.808594 336.007812 259.378906 C 336.007812 258.953125 336.089844 258.539062 336.253906 258.144531 C 336.417969 257.75 336.652344 257.398438 336.953125 257.097656 C 337.257812 256.792969 337.605469 256.5625 338 256.398438 C 338.398438 256.234375 338.808594 256.152344 339.238281 256.152344 C 339.667969 256.152344 340.078125 256.234375 340.472656 256.398438 C 340.871094 256.5625 341.21875 256.792969 341.523438 257.097656 C 341.824219 257.398438 342.058594 257.75 342.222656 258.144531 C 342.386719 258.539062 342.46875 258.953125 342.46875 259.378906 Z M 342.46875 259.378906 " fill-opacity="1" fill-rule="nonzero"/><path fill="#6b184e" d="M 349.511719 187.78125 C 350.335938 187.542969 350.550781 185.671875 350.117188 183.308594 C 352.34375 182.394531 353.804688 181.210938 353.566406 180.386719 C 353.324219 179.566406 351.453125 179.351562 349.089844 179.785156 C 348.175781 177.558594 346.988281 176.097656 346.167969 176.339844 C 345.347656 176.578125 345.128906 178.449219 345.5625 180.808594 C 343.335938 181.722656 341.875 182.910156 342.113281 183.730469 C 342.355469 184.550781 344.226562 184.769531 346.589844 184.335938 C 347.503906 186.570312 348.691406 188.019531 349.511719 187.78125 Z M 349.511719 187.78125 " fill-opacity="1" fill-rule="nonzero"/><path fill="#6b184e" d="M 51.292969 278.660156 C 51.339844 277.804688 49.640625 276.992188 47.265625 276.628906 C 47.128906 274.222656 46.488281 272.464844 45.632812 272.417969 C 44.777344 272.375 43.964844 274.074219 43.601562 276.445312 C 41.191406 276.582031 39.433594 277.222656 39.386719 278.078125 C 39.339844 278.933594 41.042969 279.742188 43.417969 280.109375 C 43.554688 282.515625 44.191406 284.273438 45.050781 284.316406 C 45.90625 284.363281 46.714844 282.664062 47.082031 280.289062 C 49.492188 280.164062 51.261719 279.527344 51.292969 278.660156 Z M 51.292969 278.660156 " fill-opacity="1" fill-rule="nonzero"/><path fill="#f7c714" d="M 235.050781 79.960938 C 235.050781 104.089844 215.472656 123.65625 191.328125 123.65625 C 184.226562 123.65625 177.523438 121.964844 171.601562 118.964844 C 167.195312 116.742188 163.21875 113.785156 159.828125 110.273438 C 158.1875 108.574219 156.691406 106.738281 155.34375 104.785156 C 150.628906 97.984375 147.808594 89.804688 147.613281 80.964844 C 147.601562 80.632812 147.601562 80.304688 147.601562 79.972656 C 147.601562 55.832031 167.183594 36.265625 191.328125 36.265625 C 193.863281 36.265625 196.339844 36.484375 198.757812 36.90625 C 207.355469 38.378906 215.097656 42.347656 221.191406 48.050781 C 222.917969 49.671875 224.515625 51.429688 225.964844 53.300781 C 228.945312 57.144531 231.285156 61.503906 232.835938 66.214844 C 234.277344 70.527344 235.050781 75.15625 235.050781 79.960938 Z M 235.050781 79.960938 " fill-opacity="1" fill-rule="nonzero"/><path fill="#ffffff" d="M 235.050781 79.960938 C 235.050781 81.054688 235.007812 82.140625 234.9375 83.210938 C 233.28125 60.601562 214.390625 42.757812 191.328125 42.757812 C 168.277344 42.757812 149.382812 60.601562 147.71875 83.210938 C 147.636719 82.140625 147.601562 81.054688 147.601562 79.960938 C 147.601562 55.820312 167.183594 36.253906 191.328125 36.253906 C 215.472656 36.253906 235.050781 55.820312 235.050781 79.960938 Z M 235.050781 79.960938 " fill-opacity="0.55" fill-rule="nonzero"/><path fill="#f89e1d" d="M 235.050781 79.960938 C 235.050781 104.089844 215.472656 123.65625 191.328125 123.65625 C 167.183594 123.65625 147.601562 104.089844 147.601562 79.960938 C 147.601562 77.875 147.75 75.820312 148.035156 73.8125 C 151.027344 95.03125 169.269531 111.355469 191.328125 111.355469 C 213.382812 111.355469 231.628906 95.03125 234.617188 73.8125 C 234.902344 75.820312 235.050781 77.875 235.050781 79.960938 Z M 235.050781 79.960938 " fill-opacity="1" fill-rule="nonzero"/><path fill="#f9dd6a" d="M 191.328125 110.433594 C 174.511719 110.433594 160.835938 96.765625 160.835938 79.960938 C 160.835938 63.15625 174.511719 49.488281 191.328125 49.488281 C 208.144531 49.488281 221.820312 63.15625 221.820312 79.960938 C 221.808594 96.765625 208.132812 110.433594 191.328125 110.433594 Z M 191.328125 110.433594 " fill-opacity="1" fill-rule="nonzero"/><path fill="#ffffff" d="M 221.808594 79.960938 C 221.808594 80.78125 221.773438 81.59375 221.707031 82.402344 C 220.460938 66.738281 207.308594 54.359375 191.316406 54.359375 C 175.320312 54.359375 162.171875 66.726562 160.925781 82.402344 C 160.867188 81.605469 160.824219 80.78125 160.824219 79.960938 C 160.824219 63.15625 174.5 49.488281 191.316406 49.488281 C 208.132812 49.488281 221.808594 63.167969 221.808594 79.960938 Z M 221.808594 79.960938 " fill-opacity="0.55" fill-rule="nonzero"/><path fill="#6b184e" d="M 202.207031 86.644531 C 202.207031 90.640625 199.890625 94.1875 195.027344 95.691406 L 195.027344 100.542969 L 188.839844 100.542969 L 188.839844 96.445312 C 185.414062 96.367188 182.113281 95.476562 180.425781 94.53125 L 181.886719 88.609375 C 183.816406 89.589844 186.773438 90.582031 189.832031 90.582031 C 193.132812 90.582031 194.867188 89.214844 194.867188 87.148438 C 194.867188 85.175781 193.359375 84.046875 189.546875 82.6875 C 184.285156 80.851562 180.847656 77.941406 180.847656 73.332031 C 180.847656 68.976562 183.792969 65.449219 188.851562 64.242188 L 188.851562 59.367188 L 195.039062 59.367188 L 195.039062 63.898438 C 197.527344 64.125 199.46875 64.730469 200.941406 65.394531 L 199.34375 71.175781 C 198.074219 70.5625 195.8125 69.671875 192.710938 69.671875 C 189.605469 69.671875 188.097656 71.074219 188.097656 72.726562 C 188.097656 74.746094 189.890625 75.636719 193.976562 77.1875 C 199.582031 79.265625 202.207031 82.175781 202.207031 86.644531 Z M 202.207031 86.644531 " fill-opacity="1" fill-rule="nonzero"/><path fill="#fce5e5" d="M 221.191406 48.039062 L 155.34375 104.785156 C 150.628906 97.984375 147.808594 89.804688 147.613281 80.964844 L 198.757812 36.90625 C 207.355469 38.367188 215.097656 42.335938 221.191406 48.039062 Z M 221.191406 48.039062 " fill-opacity="0.27" fill-rule="nonzero"/><path fill="#fce5e5" d="M 231.101562 61.800781 L 169.703125 117.574219 C 165.296875 115.351562 163.21875 113.785156 159.828125 110.273438 L 225.964844 53.289062 C 228.933594 57.144531 229.550781 57.085938 231.101562 61.800781 Z M 231.101562 61.800781 " fill-opacity="0.27" fill-rule="nonzero"/><path fill="#6b184e" d="M 191.328125 112.246094 C 173.507812 112.246094 159.019531 97.757812 159.019531 79.960938 C 159.019531 62.152344 173.519531 47.675781 191.328125 47.675781 C 209.136719 47.675781 223.636719 62.164062 223.636719 79.960938 C 223.636719 97.769531 209.136719 112.246094 191.328125 112.246094 Z M 191.328125 51.316406 C 175.515625 51.316406 162.660156 64.171875 162.660156 79.960938 C 162.660156 95.761719 175.527344 108.605469 191.328125 108.605469 C 207.128906 108.605469 219.992188 95.75 219.992188 79.960938 C 219.992188 64.160156 207.128906 51.316406 191.328125 51.316406 Z M 191.328125 51.316406 " fill-opacity="1" fill-rule="nonzero"/><g clip-path="url(#68d1c11027)"><path fill="#6b184e" d="M 191.328125 126.085938 C 184 126.085938 177 124.417969 170.503906 121.132812 C 165.878906 118.796875 161.703125 115.703125 158.082031 111.960938 C 156.371094 110.191406 154.773438 108.242188 153.34375 106.164062 C 148.207031 98.761719 145.386719 90.058594 145.195312 81.023438 C 145.183594 80.667969 145.183594 80.324219 145.183594 79.972656 C 145.183594 54.542969 165.890625 33.847656 191.339844 33.847656 C 193.976562 33.847656 196.613281 34.078125 199.183594 34.523438 C 208.0625 36.039062 216.25 40.113281 222.859375 46.285156 C 224.675781 47.996094 226.375 49.855469 227.894531 51.816406 C 231.089844 55.945312 233.523438 60.53125 235.144531 65.460938 C 236.695312 70.105469 237.484375 75 237.484375 79.972656 C 237.472656 105.390625 216.773438 126.085938 191.328125 126.085938 Z M 191.328125 38.6875 C 168.550781 38.6875 150.023438 57.203125 150.023438 79.960938 C 150.023438 80.28125 150.035156 80.589844 150.035156 80.90625 C 150.21875 88.996094 152.742188 96.777344 157.328125 103.40625 C 158.609375 105.265625 160.035156 107.011719 161.566406 108.585938 C 164.808594 111.949219 168.550781 114.710938 172.683594 116.796875 C 178.496094 119.742188 184.761719 121.226562 191.316406 121.226562 C 214.09375 121.226562 232.621094 102.710938 232.621094 79.949219 C 232.621094 75.488281 231.914062 71.121094 230.53125 66.957031 C 229.082031 62.550781 226.902344 58.445312 224.046875 54.761719 C 222.6875 53.003906 221.171875 51.328125 219.539062 49.796875 C 213.636719 44.277344 206.304688 40.636719 198.359375 39.277344 C 196.042969 38.890625 193.679688 38.6875 191.328125 38.6875 Z M 191.328125 38.6875 " fill-opacity="1" fill-rule="nonzero"/></g><path fill="#f7c714" d="M 279.472656 321.703125 L 279.472656 330.28125 C 279.472656 332.324219 277.875 333.976562 275.867188 334.09375 C 275.796875 334.09375 275.71875 334.09375 275.648438 334.09375 L 226.375 334.09375 C 224.265625 334.09375 222.550781 332.382812 222.550781 330.269531 L 222.550781 321.691406 C 222.550781 319.582031 224.265625 317.871094 226.375 317.871094 L 275.648438 317.871094 C 277.761719 317.882812 279.472656 319.59375 279.472656 321.703125 Z M 279.472656 321.703125 " fill-opacity="1" fill-rule="nonzero"/><path fill="#f89e1d" d="M 252.324219 317.882812 L 273.640625 317.882812 L 273.640625 334.105469 L 252.324219 334.105469 Z M 252.324219 317.882812 " fill-opacity="1" fill-rule="nonzero"/><path fill="#fce5e5" d="M 234.984375 318.632812 L 245.339844 318.632812 L 245.339844 334.855469 L 234.984375 334.855469 Z M 234.984375 318.632812 " fill-opacity="0.55" fill-rule="nonzero"/><path fill="#6b184e" d="M 275.660156 336.226562 L 226.386719 336.226562 C 223.109375 336.226562 220.4375 333.554688 220.4375 330.28125 L 220.4375 321.703125 C 220.4375 318.429688 223.109375 315.757812 226.386719 315.757812 L 275.660156 315.757812 C 278.9375 315.757812 281.609375 318.429688 281.609375 321.703125 L 281.609375 330.28125 C 281.597656 333.554688 278.9375 336.226562 275.660156 336.226562 Z M 226.386719 320.003906 C 225.449219 320.003906 224.6875 320.769531 224.6875 321.703125 L 224.6875 330.28125 C 224.6875 331.21875 225.449219 331.980469 226.386719 331.980469 L 275.660156 331.980469 C 276.597656 331.980469 277.363281 331.21875 277.363281 330.28125 L 277.363281 321.703125 C 277.363281 320.769531 276.597656 320.003906 275.660156 320.003906 Z M 226.386719 320.003906 " fill-opacity="1" fill-rule="nonzero"/><path fill="#f7c714" d="M 274.722656 305.480469 L 274.722656 314.058594 C 274.722656 316.101562 273.125 317.757812 271.117188 317.871094 C 271.046875 317.871094 270.96875 317.871094 270.898438 317.871094 L 221.625 317.871094 C 219.515625 317.871094 217.800781 316.160156 217.800781 314.046875 L 217.800781 305.46875 C 217.800781 303.359375 219.515625 301.648438 221.625 301.648438 L 270.898438 301.648438 C 273.011719 301.660156 274.722656 303.371094 274.722656 305.480469 Z M 274.722656 305.480469 " fill-opacity="1" fill-rule="nonzero"/><path fill="#f89e1d" d="M 247.574219 301.660156 L 268.890625 301.660156 L 268.890625 317.882812 L 247.574219 317.882812 Z M 247.574219 301.660156 " fill-opacity="1" fill-rule="nonzero"/><path fill="#fce5e5" d="M 230.234375 302.410156 L 240.589844 302.410156 L 240.589844 318.632812 L 230.234375 318.632812 Z M 230.234375 302.410156 " fill-opacity="0.55" fill-rule="nonzero"/><path fill="#6b184e" d="M 270.898438 320.003906 L 221.625 320.003906 C 218.351562 320.003906 215.679688 317.332031 215.679688 314.058594 L 215.679688 305.480469 C 215.679688 302.207031 218.351562 299.535156 221.625 299.535156 L 270.898438 299.535156 C 274.175781 299.535156 276.847656 302.207031 276.847656 305.480469 L 276.847656 314.058594 C 276.847656 317.332031 274.175781 320.003906 270.898438 320.003906 Z M 221.636719 303.78125 C 220.703125 303.78125 219.9375 304.546875 219.9375 305.480469 L 219.9375 314.058594 C 219.9375 314.996094 220.703125 315.757812 221.636719 315.757812 L 270.910156 315.757812 C 271.847656 315.757812 272.613281 314.996094 272.613281 314.058594 L 272.613281 305.480469 C 272.613281 304.546875 271.847656 303.78125 270.910156 303.78125 Z M 221.636719 303.78125 " fill-opacity="1" fill-rule="nonzero"/><path fill="#f7c714" d="M 284.941406 289.257812 L 284.941406 297.835938 C 284.941406 299.878906 283.34375 301.535156 281.335938 301.648438 C 281.265625 301.648438 281.1875 301.648438 281.117188 301.648438 L 231.84375 301.648438 C 229.730469 301.648438 228.019531 299.9375 228.019531 297.824219 L 228.019531 289.246094 C 228.019531 287.136719 229.730469 285.425781 231.84375 285.425781 L 281.117188 285.425781 C 283.230469 285.4375 284.941406 287.148438 284.941406 289.257812 Z M 284.941406 289.257812 " fill-opacity="1" fill-rule="nonzero"/><path fill="#f89e1d" d="M 257.78125 285.4375 L 279.097656 285.4375 L 279.097656 301.660156 L 257.78125 301.660156 Z M 257.78125 285.4375 " fill-opacity="1" fill-rule="nonzero"/><path fill="#fce5e5" d="M 240.453125 286.199219 L 250.808594 286.199219 L 250.808594 302.421875 L 240.453125 302.421875 Z M 240.453125 286.199219 " fill-opacity="0.55" fill-rule="nonzero"/><path fill="#6b184e" d="M 281.117188 303.78125 L 231.84375 303.78125 C 228.566406 303.78125 225.894531 301.109375 225.894531 297.835938 L 225.894531 289.257812 C 225.894531 285.984375 228.566406 283.3125 231.84375 283.3125 L 281.117188 283.3125 C 284.394531 283.3125 287.066406 285.984375 287.066406 289.257812 L 287.066406 297.835938 C 287.066406 301.109375 284.394531 303.78125 281.117188 303.78125 Z M 231.84375 287.558594 C 230.90625 287.558594 230.144531 288.324219 230.144531 289.257812 L 230.144531 297.835938 C 230.144531 298.773438 230.90625 299.535156 231.84375 299.535156 L 281.117188 299.535156 C 282.054688 299.535156 282.820312 298.773438 282.820312 297.835938 L 282.820312 289.257812 C 282.820312 288.324219 282.054688 287.558594 281.117188 287.558594 Z M 231.84375 287.558594 " fill-opacity="1" fill-rule="nonzero"/><path fill="#f7c714" d="M 118.8125 333.476562 L 111.367188 329.1875 C 109.597656 328.171875 108.957031 325.957031 109.859375 324.15625 C 109.894531 324.097656 109.929688 324.03125 109.964844 323.972656 L 134.589844 281.328125 C 135.636719 279.503906 137.980469 278.875 139.804688 279.925781 L 147.25 284.214844 C 149.074219 285.265625 149.703125 287.605469 148.652344 289.429688 L 124.027344 332.074219 C 122.976562 333.898438 120.636719 334.527344 118.8125 333.476562 Z M 118.8125 333.476562 " fill-opacity="1" fill-rule="nonzero"/><path fill="#f89e1d" d="M 111.011719 322.207031 L 121.664062 303.757812 L 135.726562 311.863281 L 125.074219 330.3125 Z M 111.011719 322.207031 " fill-opacity="1" fill-rule="nonzero"/><g mask="url(#1c8ce36fb7)"><g transform="matrix(1, 0, 0, 1, 124, 288)"><g clip-path="url(#54bcd61eb6)"><g clip-path="url(#59463a8dc8)"><path fill="#fce5e5" d="M 0.5 9.328125 L 5.675781 0.363281 L 19.738281 8.472656 L 14.5625 17.433594 Z M 0.5 9.328125 " fill-opacity="1" fill-rule="nonzero"/></g></g></g></g><path fill="#6b184e" d="M 120.71875 336.113281 C 119.710938 336.113281 118.683594 335.859375 117.761719 335.3125 L 110.328125 331.023438 C 108.945312 330.226562 107.964844 328.949219 107.554688 327.417969 C 107.144531 325.890625 107.347656 324.28125 108.148438 322.914062 L 132.773438 280.269531 C 133.570312 278.886719 134.851562 277.90625 136.378906 277.496094 C 137.910156 277.085938 139.519531 277.289062 140.890625 278.089844 L 148.320312 282.378906 C 149.703125 283.175781 150.683594 284.453125 151.097656 285.984375 C 151.507812 287.511719 151.300781 289.121094 150.503906 290.488281 L 125.878906 333.132812 C 124.769531 335.039062 122.773438 336.101562 120.71875 336.113281 Z M 137.910156 281.535156 C 137.761719 281.535156 137.613281 281.558594 137.464844 281.589844 C 137.03125 281.707031 136.664062 281.992188 136.4375 282.378906 L 111.8125 325.023438 C 111.585938 325.410156 111.527344 325.878906 111.640625 326.3125 C 111.753906 326.746094 112.039062 327.109375 112.429688 327.339844 L 119.859375 331.628906 C 120.671875 332.097656 121.710938 331.824219 122.179688 331 L 146.804688 288.355469 C 147.03125 287.96875 147.089844 287.5 146.976562 287.066406 C 146.859375 286.632812 146.574219 286.257812 146.1875 286.039062 L 138.753906 281.75 C 138.492188 281.613281 138.207031 281.535156 137.910156 281.535156 Z M 109.972656 323.960938 Z M 109.972656 323.960938 " fill-opacity="1" fill-rule="nonzero"/><g fill="#ffffff" fill-opacity="1"><g transform="translate(151.207729, 248.775776)"><g><path d="M 2.546875 -3.40625 L 2.546875 -1.28125 L 6.25 -1.28125 L 6.25 0 L 1.015625 0 L 1.015625 -7.765625 L 6.171875 -7.765625 L 6.171875 -6.484375 L 2.546875 -6.484375 L 2.546875 -4.65625 L 5.703125 -4.65625 L 5.703125 -3.40625 Z M 2.546875 -3.40625 "/></g></g></g><g fill="#ffffff" fill-opacity="1"><g transform="translate(157.882472, 248.775776)"><g><path d="M 1.65625 0 L 0.09375 0 L 1.78125 -3.03125 L 0.1875 -5.859375 L 1.765625 -5.859375 L 2.78125 -3.921875 L 2.90625 -3.921875 L 3.921875 -5.859375 L 5.4375 -5.859375 L 3.90625 -3.03125 L 5.53125 0 L 3.96875 0 L 2.859375 -2.140625 L 2.734375 -2.140625 Z M 1.65625 0 "/></g></g></g><g fill="#ffffff" fill-opacity="1"><g transform="translate(163.516444, 248.775776)"><g><path d="M 0.84375 2.375 L 0.84375 -5.859375 L 2.3125 -5.859375 L 2.3125 -5.09375 L 2.421875 -5.078125 C 2.597656 -5.367188 2.832031 -5.585938 3.125 -5.734375 C 3.414062 -5.890625 3.753906 -5.96875 4.140625 -5.96875 C 4.609375 -5.96875 5.019531 -5.851562 5.375 -5.625 C 5.726562 -5.40625 6.003906 -5.066406 6.203125 -4.609375 C 6.398438 -4.160156 6.5 -3.597656 6.5 -2.921875 C 6.5 -2.253906 6.394531 -1.691406 6.1875 -1.234375 C 5.976562 -0.785156 5.6875 -0.445312 5.3125 -0.21875 C 4.945312 0 4.523438 0.109375 4.046875 0.109375 C 3.679688 0.109375 3.363281 0.0507812 3.09375 -0.0625 C 2.832031 -0.1875 2.609375 -0.378906 2.421875 -0.640625 L 2.3125 -0.625 L 2.3125 2.375 Z M 3.640625 -1.140625 C 4.078125 -1.140625 4.40625 -1.28125 4.625 -1.5625 C 4.851562 -1.851562 4.96875 -2.304688 4.96875 -2.921875 C 4.96875 -3.546875 4.851562 -4 4.625 -4.28125 C 4.40625 -4.570312 4.078125 -4.71875 3.640625 -4.71875 C 3.222656 -4.71875 2.894531 -4.566406 2.65625 -4.265625 C 2.414062 -3.972656 2.296875 -3.523438 2.296875 -2.921875 C 2.296875 -2.328125 2.414062 -1.878906 2.65625 -1.578125 C 2.894531 -1.285156 3.222656 -1.140625 3.640625 -1.140625 Z M 3.640625 -1.140625 "/></g></g></g><g fill="#ffffff" fill-opacity="1"><g transform="translate(170.531031, 248.775776)"><g><path d="M 5.78125 -2.59375 L 2.015625 -2.59375 C 2.066406 -2.082031 2.210938 -1.710938 2.453125 -1.484375 C 2.703125 -1.253906 3.039062 -1.140625 3.46875 -1.140625 C 3.8125 -1.140625 4.085938 -1.203125 4.296875 -1.328125 C 4.503906 -1.453125 4.671875 -1.640625 4.796875 -1.890625 L 4.90625 -1.890625 L 5.890625 -1.265625 C 5.691406 -0.859375 5.398438 -0.523438 5.015625 -0.265625 C 4.628906 -0.015625 4.113281 0.109375 3.46875 0.109375 C 2.863281 0.109375 2.34375 -0.00390625 1.90625 -0.234375 C 1.46875 -0.460938 1.128906 -0.800781 0.890625 -1.25 C 0.648438 -1.707031 0.53125 -2.265625 0.53125 -2.921875 C 0.53125 -3.585938 0.65625 -4.148438 0.90625 -4.609375 C 1.15625 -5.066406 1.492188 -5.40625 1.921875 -5.625 C 2.347656 -5.851562 2.828125 -5.96875 3.359375 -5.96875 C 4.191406 -5.96875 4.828125 -5.75 5.265625 -5.3125 C 5.710938 -4.875 5.9375 -4.226562 5.9375 -3.375 C 5.9375 -3.070312 5.925781 -2.832031 5.90625 -2.65625 Z M 4.53125 -3.546875 C 4.507812 -3.992188 4.398438 -4.316406 4.203125 -4.515625 C 4.015625 -4.722656 3.734375 -4.828125 3.359375 -4.828125 C 2.617188 -4.828125 2.1875 -4.398438 2.0625 -3.546875 Z M 4.53125 -3.546875 "/></g></g></g><g fill="#ffffff" fill-opacity="1"><g transform="translate(176.897791, 248.775776)"><g><path d="M 0.84375 0 L 0.84375 -5.859375 L 2.25 -5.859375 L 2.25 -5 L 2.375 -4.96875 C 2.738281 -5.632812 3.328125 -5.96875 4.140625 -5.96875 C 4.816406 -5.96875 5.3125 -5.78125 5.625 -5.40625 C 5.945312 -5.039062 6.109375 -4.507812 6.109375 -3.8125 L 6.109375 0 L 4.640625 0 L 4.640625 -3.625 C 4.640625 -4.007812 4.5625 -4.285156 4.40625 -4.453125 C 4.25 -4.628906 4 -4.71875 3.65625 -4.71875 C 3.226562 -4.71875 2.894531 -4.582031 2.65625 -4.3125 C 2.425781 -4.039062 2.3125 -3.613281 2.3125 -3.03125 L 2.3125 0 Z M 0.84375 0 "/></g></g></g><g fill="#ffffff" fill-opacity="1"><g transform="translate(183.758386, 248.775776)"><g><path d="M 2.734375 0.109375 C 2.335938 0.109375 1.972656 0.0625 1.640625 -0.03125 C 1.304688 -0.125 1.019531 -0.25 0.78125 -0.40625 C 0.550781 -0.570312 0.378906 -0.765625 0.265625 -0.984375 L 1.078125 -1.859375 L 1.1875 -1.859375 C 1.382812 -1.597656 1.613281 -1.398438 1.875 -1.265625 C 2.144531 -1.140625 2.4375 -1.078125 2.75 -1.078125 C 3.039062 -1.078125 3.253906 -1.128906 3.390625 -1.234375 C 3.535156 -1.335938 3.609375 -1.484375 3.609375 -1.671875 C 3.609375 -1.816406 3.554688 -1.941406 3.453125 -2.046875 C 3.347656 -2.148438 3.179688 -2.226562 2.953125 -2.28125 L 2.171875 -2.46875 C 1.597656 -2.601562 1.175781 -2.8125 0.90625 -3.09375 C 0.632812 -3.382812 0.5 -3.75 0.5 -4.1875 C 0.5 -4.550781 0.59375 -4.867188 0.78125 -5.140625 C 0.96875 -5.410156 1.226562 -5.613281 1.5625 -5.75 C 1.90625 -5.894531 2.300781 -5.96875 2.75 -5.96875 C 3.28125 -5.96875 3.71875 -5.890625 4.0625 -5.734375 C 4.40625 -5.585938 4.675781 -5.382812 4.875 -5.125 L 4.09375 -4.28125 L 3.984375 -4.28125 C 3.816406 -4.46875 3.628906 -4.601562 3.421875 -4.6875 C 3.222656 -4.769531 3 -4.8125 2.75 -4.8125 C 2.164062 -4.8125 1.875 -4.628906 1.875 -4.265625 C 1.875 -4.117188 1.925781 -3.992188 2.03125 -3.890625 C 2.144531 -3.796875 2.335938 -3.71875 2.609375 -3.65625 L 3.328125 -3.5 C 3.929688 -3.375 4.367188 -3.171875 4.640625 -2.890625 C 4.910156 -2.609375 5.046875 -2.226562 5.046875 -1.75 C 5.046875 -1.382812 4.953125 -1.054688 4.765625 -0.765625 C 4.585938 -0.484375 4.320312 -0.265625 3.96875 -0.109375 C 3.625 0.0351562 3.210938 0.109375 2.734375 0.109375 Z M 2.734375 0.109375 "/></g></g></g><g fill="#ffffff" fill-opacity="1"><g transform="translate(189.158715, 248.775776)"><g><path d="M 5.78125 -2.59375 L 2.015625 -2.59375 C 2.066406 -2.082031 2.210938 -1.710938 2.453125 -1.484375 C 2.703125 -1.253906 3.039062 -1.140625 3.46875 -1.140625 C 3.8125 -1.140625 4.085938 -1.203125 4.296875 -1.328125 C 4.503906 -1.453125 4.671875 -1.640625 4.796875 -1.890625 L 4.90625 -1.890625 L 5.890625 -1.265625 C 5.691406 -0.859375 5.398438 -0.523438 5.015625 -0.265625 C 4.628906 -0.015625 4.113281 0.109375 3.46875 0.109375 C 2.863281 0.109375 2.34375 -0.00390625 1.90625 -0.234375 C 1.46875 -0.460938 1.128906 -0.800781 0.890625 -1.25 C 0.648438 -1.707031 0.53125 -2.265625 0.53125 -2.921875 C 0.53125 -3.585938 0.65625 -4.148438 0.90625 -4.609375 C 1.15625 -5.066406 1.492188 -5.40625 1.921875 -5.625 C 2.347656 -5.851562 2.828125 -5.96875 3.359375 -5.96875 C 4.191406 -5.96875 4.828125 -5.75 5.265625 -5.3125 C 5.710938 -4.875 5.9375 -4.226562 5.9375 -3.375 C 5.9375 -3.070312 5.925781 -2.832031 5.90625 -2.65625 Z M 4.53125 -3.546875 C 4.507812 -3.992188 4.398438 -4.316406 4.203125 -4.515625 C 4.015625 -4.722656 3.734375 -4.828125 3.359375 -4.828125 C 2.617188 -4.828125 2.1875 -4.398438 2.0625 -3.546875 Z M 4.53125 -3.546875 "/></g></g></g><g fill="#ffffff" fill-opacity="1"><g transform="translate(195.525475, 248.775776)"><g/></g></g><g fill="#ffffff" fill-opacity="1"><g transform="translate(198.090233, 248.775776)"><g><path d="M 6.21875 -7.765625 L 6.21875 -6.46875 L 3.984375 -6.46875 L 3.984375 0 L 2.453125 0 L 2.453125 -6.46875 L 0.21875 -6.46875 L 0.21875 -7.765625 Z M 6.21875 -7.765625 "/></g></g></g><g fill="#ffffff" fill-opacity="1"><g transform="translate(203.994652, 248.775776)"><g><path d="M 0.84375 0 L 0.84375 -5.859375 L 2.265625 -5.859375 L 2.265625 -4.984375 L 2.390625 -4.96875 C 2.523438 -5.289062 2.707031 -5.523438 2.9375 -5.671875 C 3.164062 -5.828125 3.445312 -5.90625 3.78125 -5.90625 C 4.113281 -5.90625 4.367188 -5.847656 4.546875 -5.734375 L 4.296875 -4.46875 L 4.171875 -4.453125 C 4.078125 -4.492188 3.984375 -4.519531 3.890625 -4.53125 C 3.804688 -4.550781 3.703125 -4.5625 3.578125 -4.5625 C 3.171875 -4.5625 2.859375 -4.414062 2.640625 -4.125 C 2.421875 -3.84375 2.3125 -3.378906 2.3125 -2.734375 L 2.3125 0 Z M 0.84375 0 "/></g></g></g><g fill="#ffffff" fill-opacity="1"><g transform="translate(208.476261, 248.775776)"><g><path d="M 2.28125 0.109375 C 1.90625 0.109375 1.578125 0.0390625 1.296875 -0.09375 C 1.023438 -0.226562 0.816406 -0.429688 0.671875 -0.703125 C 0.523438 -0.972656 0.453125 -1.296875 0.453125 -1.671875 C 0.453125 -2.015625 0.523438 -2.300781 0.671875 -2.53125 C 0.816406 -2.769531 1.046875 -2.960938 1.359375 -3.109375 C 1.671875 -3.265625 2.078125 -3.382812 2.578125 -3.46875 C 2.929688 -3.519531 3.195312 -3.578125 3.375 -3.640625 C 3.5625 -3.710938 3.6875 -3.789062 3.75 -3.875 C 3.8125 -3.96875 3.84375 -4.078125 3.84375 -4.203125 C 3.84375 -4.390625 3.773438 -4.53125 3.640625 -4.625 C 3.515625 -4.726562 3.300781 -4.78125 3 -4.78125 C 2.664062 -4.78125 2.351562 -4.707031 2.0625 -4.5625 C 1.769531 -4.414062 1.515625 -4.226562 1.296875 -4 L 1.1875 -4 L 0.578125 -4.921875 C 0.878906 -5.253906 1.242188 -5.507812 1.671875 -5.6875 C 2.097656 -5.875 2.5625 -5.96875 3.0625 -5.96875 C 3.84375 -5.96875 4.40625 -5.800781 4.75 -5.46875 C 5.09375 -5.144531 5.265625 -4.679688 5.265625 -4.078125 L 5.265625 -1.53125 C 5.265625 -1.269531 5.382812 -1.140625 5.625 -1.140625 C 5.707031 -1.140625 5.789062 -1.15625 5.875 -1.1875 L 5.953125 -1.15625 L 6.0625 -0.140625 C 5.976562 -0.0859375 5.863281 -0.0390625 5.71875 0 C 5.570312 0.03125 5.410156 0.046875 5.234375 0.046875 C 4.890625 0.046875 4.617188 -0.0195312 4.421875 -0.15625 C 4.222656 -0.289062 4.082031 -0.503906 4 -0.796875 L 3.890625 -0.796875 C 3.597656 -0.191406 3.0625 0.109375 2.28125 0.109375 Z M 2.75 -0.984375 C 3.09375 -0.984375 3.363281 -1.097656 3.5625 -1.328125 C 3.769531 -1.554688 3.875 -1.875 3.875 -2.28125 L 3.875 -2.875 L 3.765625 -2.90625 C 3.679688 -2.832031 3.566406 -2.769531 3.421875 -2.71875 C 3.273438 -2.675781 3.066406 -2.628906 2.796875 -2.578125 C 2.484375 -2.523438 2.253906 -2.429688 2.109375 -2.296875 C 1.972656 -2.171875 1.90625 -1.988281 1.90625 -1.75 C 1.90625 -1.5 1.976562 -1.304688 2.125 -1.171875 C 2.28125 -1.046875 2.488281 -0.984375 2.75 -0.984375 Z M 2.75 -0.984375 "/></g></g></g><g fill="#ffffff" fill-opacity="1"><g transform="translate(214.651859, 248.775776)"><g><path d="M 3.421875 0.109375 C 2.847656 0.109375 2.34375 -0.00390625 1.90625 -0.234375 C 1.476562 -0.472656 1.140625 -0.820312 0.890625 -1.28125 C 0.648438 -1.738281 0.53125 -2.285156 0.53125 -2.921875 C 0.53125 -3.566406 0.648438 -4.117188 0.890625 -4.578125 C 1.140625 -5.035156 1.476562 -5.378906 1.90625 -5.609375 C 2.332031 -5.847656 2.828125 -5.96875 3.390625 -5.96875 C 4.617188 -5.96875 5.410156 -5.519531 5.765625 -4.625 L 4.75 -3.90625 L 4.640625 -3.90625 C 4.515625 -4.175781 4.351562 -4.378906 4.15625 -4.515625 C 3.96875 -4.648438 3.710938 -4.71875 3.390625 -4.71875 C 2.960938 -4.71875 2.628906 -4.570312 2.390625 -4.28125 C 2.160156 -3.988281 2.046875 -3.535156 2.046875 -2.921875 C 2.046875 -2.316406 2.164062 -1.867188 2.40625 -1.578125 C 2.644531 -1.285156 2.984375 -1.140625 3.421875 -1.140625 C 3.734375 -1.140625 4 -1.222656 4.21875 -1.390625 C 4.445312 -1.566406 4.609375 -1.816406 4.703125 -2.140625 L 4.8125 -2.140625 L 5.859375 -1.578125 C 5.710938 -1.078125 5.4375 -0.671875 5.03125 -0.359375 C 4.625 -0.046875 4.085938 0.109375 3.421875 0.109375 Z M 3.421875 0.109375 "/></g></g></g><g fill="#ffffff" fill-opacity="1"><g transform="translate(220.689395, 248.775776)"><g><path d="M 5.78125 -2.59375 L 2.015625 -2.59375 C 2.066406 -2.082031 2.210938 -1.710938 2.453125 -1.484375 C 2.703125 -1.253906 3.039062 -1.140625 3.46875 -1.140625 C 3.8125 -1.140625 4.085938 -1.203125 4.296875 -1.328125 C 4.503906 -1.453125 4.671875 -1.640625 4.796875 -1.890625 L 4.90625 -1.890625 L 5.890625 -1.265625 C 5.691406 -0.859375 5.398438 -0.523438 5.015625 -0.265625 C 4.628906 -0.015625 4.113281 0.109375 3.46875 0.109375 C 2.863281 0.109375 2.34375 -0.00390625 1.90625 -0.234375 C 1.46875 -0.460938 1.128906 -0.800781 0.890625 -1.25 C 0.648438 -1.707031 0.53125 -2.265625 0.53125 -2.921875 C 0.53125 -3.585938 0.65625 -4.148438 0.90625 -4.609375 C 1.15625 -5.066406 1.492188 -5.40625 1.921875 -5.625 C 2.347656 -5.851562 2.828125 -5.96875 3.359375 -5.96875 C 4.191406 -5.96875 4.828125 -5.75 5.265625 -5.3125 C 5.710938 -4.875 5.9375 -4.226562 5.9375 -3.375 C 5.9375 -3.070312 5.925781 -2.832031 5.90625 -2.65625 Z M 4.53125 -3.546875 C 4.507812 -3.992188 4.398438 -4.316406 4.203125 -4.515625 C 4.015625 -4.722656 3.734375 -4.828125 3.359375 -4.828125 C 2.617188 -4.828125 2.1875 -4.398438 2.0625 -3.546875 Z M 4.53125 -3.546875 "/></g></g></g><g fill="#ffffff" fill-opacity="1"><g transform="translate(227.056155, 248.775776)"><g><path d="M 0.84375 0 L 0.84375 -5.859375 L 2.265625 -5.859375 L 2.265625 -4.984375 L 2.390625 -4.96875 C 2.523438 -5.289062 2.707031 -5.523438 2.9375 -5.671875 C 3.164062 -5.828125 3.445312 -5.90625 3.78125 -5.90625 C 4.113281 -5.90625 4.367188 -5.847656 4.546875 -5.734375 L 4.296875 -4.46875 L 4.171875 -4.453125 C 4.078125 -4.492188 3.984375 -4.519531 3.890625 -4.53125 C 3.804688 -4.550781 3.703125 -4.5625 3.578125 -4.5625 C 3.171875 -4.5625 2.859375 -4.414062 2.640625 -4.125 C 2.421875 -3.84375 2.3125 -3.378906 2.3125 -2.734375 L 2.3125 0 Z M 0.84375 0 "/></g></g></g></svg>